<svg aria-hidden="true" style="width:0;height:0;position:absolute;overflow:hidden" xmlns="http://www.w3.org/2000/svg"><defs><symbol id="icon-arrow-left" viewBox="0 0 17 30" fill="currentColor"><path d="M.45 15.905 14.383 29.18a1.25 1.25 0 0 0 1.725 0l.015-.015a1.15 1.15 0 0 0 0-1.668l-13.12-12.5 13.12-12.494a1.15 1.15 0 0 0 0-1.668L16.108.82a1.25 1.25 0 0 0-1.725 0L.45 14.095a1.251 1.251 0 0 0 0 1.81Z"/></symbol><symbol id="icon-burger" viewBox="0 0 28 28" fill="currentColor"><path d="M2.333 7A1.167 1.167 0 0 1 3.5 5.833h21a1.167 1.167 0 0 1 0 2.334h-21A1.167 1.167 0 0 1 2.333 7Zm0 7.037A1.167 1.167 0 0 1 3.5 12.871h21a1.167 1.167 0 1 1 0 2.333h-21a1.167 1.167 0 0 1-1.167-1.167ZM3.5 19.908a1.167 1.167 0 0 0 0 2.333h21a1.167 1.167 0 1 0 0-2.333h-21Z"/></symbol><symbol id="icon-logo" viewBox="0 0 71 52"><path d="M26.64 10.54c1.644-3.233 6.262-3.233 7.906 0l2.046 4.023a4.434 4.434 0 0 0 3.254 2.37l4.471.713c3.57.57 4.995 4.944 2.444 7.507l-3.219 3.235a4.434 4.434 0 0 0-1.237 3.816l.707 4.5c.563 3.578-3.17 6.285-6.397 4.638l-4.005-2.045a4.435 4.435 0 0 0-4.033 0l-4.006 2.045c-3.226 1.647-6.96-1.06-6.397-4.638l.707-4.5a4.434 4.434 0 0 0-1.237-3.817l-3.22-3.234c-2.55-2.563-1.125-6.937 2.445-7.507l4.471-.714a4.434 4.434 0 0 0 3.254-2.369l2.046-4.024Z" fill="#FFE550"/><path d="m5.568 33.079-.034.008c.004.12-.003.608-.02 1.463-.005.852-.007 1.412-.005 1.678 0 .256-.006.464-.017.624l.001.547a3.686 3.686 0 0 1-.032.481l-.03.336c-.023.212-.069.326-.138.343-.15.035-.383-.08-.7-.345-.321-.276-.506-.518-.555-.725-.048-.207-.06-1.724-.033-4.55.037-2.828-.037-4.688-.223-5.58a.676.676 0 0 1 .023-.443c.058-.27.357-.522.896-.76.551-.24 1.373-.49 2.466-.749 1.105-.262 1.981-.41 2.63-.442.66-.035 1.014.051 1.063.259.033.138-.042.259-.224.363-.182.104-.344.19-.485.26-.145.06-.333.134-.567.226-.236.08-.455.157-.657.229-.204.06-.469.148-.795.262-.314.11-.605.216-.873.316-.27.089-.635.218-1.093.387-.458.17-.755.277-.89.32.02.033.037.083.054.152.127.541.196 1.837.206 3.889a17.857 17.857 0 0 0 2.283-.596c.812-.266 1.31-.42 1.494-.465.438-.103.678-.063.721.121.084.357-.345.775-1.29 1.254-.932.477-1.99.855-3.176 1.137Zm11.267-3.184a3.267 3.267 0 0 0-.45-1.06c-.21-.327-.456-.542-.736-.646-.742.407-1.281 1.185-1.618 2.334-.328 1.136-.387 2.146-.178 3.033.209.886.558 1.386 1.047 1.501.79-.357 1.359-1.088 1.706-2.191.356-1.118.433-2.108.23-2.971Zm-4.502 1.232c.19-.993.54-1.854 1.05-2.582.517-.743 1.115-1.195 1.794-1.356.69-.164 1.335-.007 1.933.47.596.467.993 1.12 1.191 1.96.196.83.195 1.729-.001 2.699a6.15 6.15 0 0 1-1.166 2.555c-.569.73-1.25 1.19-2.044 1.379-.587.139-1.14-.015-1.658-.464-.519-.448-.876-1.086-1.071-1.915-.198-.84-.208-1.755-.028-2.746Zm12.322-3.088a3.27 3.27 0 0 0-.45-1.06c-.21-.327-.456-.542-.735-.646-.743.407-1.282 1.185-1.619 2.335-.327 1.135-.387 2.146-.178 3.032.21.886.558 1.387 1.047 1.502.79-.358 1.36-1.089 1.707-2.192.356-1.118.432-2.108.228-2.971Zm-4.502 1.232c.191-.993.54-1.854 1.05-2.582.517-.743 1.115-1.195 1.794-1.356.69-.164 1.335-.007 1.933.471.596.466.993 1.12 1.191 1.96.196.828.195 1.728-.001 2.698-.2.959-.588 1.81-1.165 2.555-.57.731-1.25 1.19-2.044 1.379-.587.14-1.14-.015-1.659-.463-.519-.449-.876-1.087-1.071-1.916-.198-.84-.207-1.755-.028-2.746Zm12.665-11.373c.184-.044.45.076.796.358.354.268.567.552.638.851.07.3.127 1.185.17 2.658.041 1.46.048 2.984.022 4.57-.037 3.558-.187 5.368-.451 5.431-.162.038-.363-.017-.605-.166-.233-.164-.367-.32-.402-.47-.035-.15-.066-.459-.09-.927-.857 1.419-1.705 2.228-2.545 2.427-.506.12-1.02 0-1.543-.363-.512-.365-.826-.794-.942-1.29-.169-.713-.178-1.604-.03-2.672a9.14 9.14 0 0 1 1.04-3.09c.535-.979 1.21-1.564 2.027-1.758.817-.194 1.502.16 2.055 1.062.011-2.58-.12-4.584-.397-6.013-.082-.345.004-.548.257-.608Zm.1 8.927c-.146-.621-.379-1.12-.698-1.493-.307-.377-.61-.53-.91-.459-.494.118-.929.543-1.303 1.276a7.593 7.593 0 0 0-.746 2.4c-.114.855-.104 1.57.032 2.145a.64.64 0 0 0 .342.447c.18.091.373.112.58.063.449-.107.977-.572 1.584-1.397.62-.827.998-1.72 1.137-2.676l.003-.22-.02-.086Zm11.017-1.046c.222.944-.016 1.839-.715 2.685-.703.835-1.606 1.384-2.71 1.646-1.093.26-2.063.192-2.91-.203-.849-.406-1.333-.862-1.452-1.369-.082-.345-.019-.542.188-.591.184-.044.612.146 1.283.57.253.147.573.265.959.356.397.088.791.086 1.183-.007.805-.191 1.47-.568 1.993-1.13.535-.564.746-1.088.632-1.571-.074-.311-.374-.66-.902-1.044a12.205 12.205 0 0 0-1.703-1.036 13.35 13.35 0 0 1-1.693-1.075c-.53-.397-.83-.74-.898-1.027a2.801 2.801 0 0 1-.043-.956c.039-.35.11-.615.213-.798.332-.601.92-1.221 1.766-1.86.858-.64 1.608-1.037 2.253-1.19.333-.08.641-.037.923.127.281.164.45.367.508.609.027.115-.072.236-.298.362-.225.127-.571.306-1.039.539-.459.218-.86.447-1.205.687-1.203.82-1.75 1.466-1.639 1.938.06.253.9.801 2.52 1.644a8.58 8.58 0 0 1 1.769 1.24c.564.486.903.97 1.017 1.454Zm3.962.864c.052.219.204.298.458.238.437-.104.938-.35 1.502-.74.573-.403.894-.612.963-.629.207-.05.337.036.388.254.079.334-.175.802-.763 1.403-.575.598-1.145.964-1.709 1.098-.552.131-1.048.09-1.486-.121-.442-.223-.7-.496-.777-.819-.076-.322-.103-.747-.081-1.274.018-.54.058-1.248.118-2.125.07-.892.115-1.626.137-2.202-.51.255-.858.404-1.042.448-.185.044-.39-.005-.618-.145-.219-.155-.348-.319-.39-.491-.064-.276.621-.719 2.057-1.327-.018-1.004-.114-1.875-.287-2.611-.082-.346-.008-.546.223-.6.195-.047.467.023.814.207.345.174.554.416.627.727.073.31.104.88.093 1.71a19.419 19.419 0 0 1 1.55-.46c.69-.163 1.071-.096 1.142.204.04.172-.116.361-.468.566-.341.203-1.081.567-2.221 1.093a76.74 76.74 0 0 1-.178 3.342c-.094 1.25-.111 2.001-.051 2.254Zm7.72-9.051c.518-.123 1.058.028 1.62.454.56.414.89.834.99 1.26.098.415.054.874-.13 1.38.178.14.283.273.313.4.076.322.131.892.166 1.71.047.816.08 1.349.103 1.598.034.248.057.449.07.604.01.143.013.288.011.435.022.298-.048.467-.209.505-.207.05-.421-.088-.644-.412-.213-.339-.4-.793-.558-1.363-.717 1.544-1.513 2.42-2.387 2.627-.53.125-1.106.025-1.73-.3-.614-.341-.979-.753-1.093-1.236-.163-.69-.11-1.603.157-2.736.265-1.144.706-2.209 1.324-3.194.618-.986 1.284-1.563 1.998-1.732Zm1.51 2.85c-.252-1.07-.59-1.555-1.016-1.454-.449.107-.896.553-1.343 1.34a9.614 9.614 0 0 0-1.01 2.518c-.224.904-.28 1.592-.17 2.064a.604.604 0 0 0 .356.426c.189.077.392.09.61.037.541-.128 1.066-.635 1.574-1.521.505-.898.766-1.902.784-3.012-.006-.181.067-.308.22-.38l-.004-.018Z" fill="#2C2C2C"/><path fill-rule="evenodd" clip-rule="evenodd" d="M53.589 32.459a1.49 1.49 0 0 0-1.044.98c-3.09 9.184-11.744 15.79-21.924 15.79-6.174 0-11.788-2.43-15.938-6.392a1.488 1.488 0 0 0-1.382-.38c-1.038.258-1.431 1.515-.663 2.259C17.298 49.226 23.636 52 30.621 52c11.472 0 21.203-7.484 24.61-17.852.334-1.017-.603-1.947-1.642-1.69ZM6.779 22.99c.562-.14.978-.608 1.081-1.178C9.824 10.977 19.275 2.772 30.621 2.772c7.379 0 13.956 3.47 18.193 8.877.358.456.945.676 1.508.536.948-.235 1.377-1.337.78-2.11C46.361 3.945 38.95 0 30.621 0 17.845 0 7.231 9.28 5.101 21.488c-.167.963.728 1.739 1.677 1.503Z" fill="#BBF330"/><path d="M69.575 8.664c-6.122 11.766-8.81 4.005-17.428 8.564.862-13.659 9.99-5.348 17.428-8.564Z" fill="#BBF330" stroke="#BBF330" stroke-width="1.02" stroke-linejoin="round"/></symbol><symbol id="icon-rocket-launch" viewBox="0 0 32 32"><path d="m7.233 13.633 3.534 1.5c.4-.8.827-1.588 1.283-2.366.456-.778.939-1.522 1.45-2.234L10.867 10l-3.634 3.633Zm5.134 2.7 4.433 4.434a26.195 26.195 0 0 0 3.567-1.967c1.11-.733 2.01-1.444 2.7-2.133 1.8-1.8 3.122-3.645 3.966-5.534.845-1.889 1.3-4.022 1.367-6.4-2.378.067-4.511.523-6.4 1.367-1.889.844-3.733 2.167-5.533 3.967-.69.689-1.4 1.589-2.134 2.7a26.195 26.195 0 0 0-1.966 3.566Zm7.633-3.2c-.444-.444-.667-.994-.667-1.65 0-.655.223-1.205.667-1.65.444-.444.994-.666 1.65-.666.656 0 1.206.222 1.65.666.444.445.667.995.667 1.65 0 .656-.223 1.206-.667 1.65-.444.445-.994.667-1.65.667-.656 0-1.206-.222-1.65-.667ZM19.5 25.9l3.633-3.633-.533-2.634c-.711.512-1.456.995-2.233 1.45-.778.456-1.567.884-2.367 1.284l1.5 3.533ZM30.367 2.767c.2 3.022-.178 5.777-1.134 8.266-.955 2.49-2.533 4.834-4.733 7.034l-.067.066-.066.067.733 3.667c.067.333.05.655-.05.966-.1.312-.272.59-.517.834l-5.7 5.733L16 22.8l-5.667-5.667-6.6-2.833 5.734-5.7c.244-.244.522-.417.833-.517.311-.1.633-.116.967-.05l3.666.734a.263.263 0 0 1 .067-.05.263.263 0 0 0 .067-.05c2.2-2.2 4.544-3.784 7.033-4.75 2.489-.967 5.244-1.35 8.267-1.15Zm-24.4 18.4c.777-.778 1.727-1.173 2.85-1.184 1.122-.01 2.072.373 2.85 1.15.777.778 1.16 1.728 1.15 2.85-.011 1.123-.406 2.073-1.184 2.85-.577.578-1.472 1.056-2.683 1.434-1.211.378-3.028.733-5.45 1.066.333-2.422.683-4.244 1.05-5.466.367-1.223.839-2.123 1.417-2.7Zm1.4 1.433c-.311.333-.59.856-.834 1.567-.244.71-.455 1.622-.633 2.733 1.111-.178 2.022-.389 2.733-.633.711-.245 1.234-.523 1.567-.834.422-.377.639-.85.65-1.416a2.026 2.026 0 0 0-.583-1.484 2.027 2.027 0 0 0-1.484-.583 1.875 1.875 0 0 0-1.416.65Z" fill="#7EB101"/></symbol><symbol id="icon-touch-app" viewBox="0 0 32 32"><path d="M15.5 1.333c2.022 0 3.75.706 5.183 2.117 1.434 1.411 2.15 3.128 2.15 5.15 0 1.156-.25 2.244-.75 3.267a7.368 7.368 0 0 1-2.116 2.6h-1.134V12.8a5.149 5.149 0 0 0 1.484-1.867 5.422 5.422 0 0 0 .516-2.333c0-1.467-.522-2.711-1.566-3.733-1.045-1.023-2.3-1.534-3.767-1.534s-2.722.511-3.767 1.534C10.69 5.889 10.167 7.133 10.167 8.6c0 .822.172 1.6.516 2.333a5.149 5.149 0 0 0 1.484 1.867v2.4a7.25 7.25 0 0 1-2.934-2.733A7.342 7.342 0 0 1 8.167 8.6c0-2.022.716-3.739 2.15-5.15 1.433-1.411 3.16-2.117 5.183-2.117Zm-1.267 28c-.377 0-.733-.072-1.066-.216a2.766 2.766 0 0 1-.867-.584l-6.867-6.866L7.3 19.733c.311-.31.661-.55 1.05-.716a1.827 1.827 0 0 1 1.217-.084l2.6.6V8.667c0-.934.322-1.723.966-2.367.645-.644 1.434-.967 2.367-.967s1.722.323 2.367.967c.644.644.966 1.433.966 2.367V14.4h.867c.111 0 .211.022.3.067.089.044.189.088.3.133l4.933 2.4c.534.244.928.639 1.184 1.183.255.545.327 1.106.216 1.684l-1.2 7.266a2.518 2.518 0 0 1-.933 1.584 2.692 2.692 0 0 1-1.733.616h-8.534Zm-.266-2h9.366l1.434-8.3-6.1-3.033h-1.834V8.667c0-.4-.122-.723-.366-.967-.245-.244-.567-.367-.967-.367s-.722.123-.967.367c-.244.244-.366.567-.366.967v13.3l-5.134-1.1-.766.766 5.7 5.7Zm9.366 0h-9.366 9.366Z" fill="#7EB101"/></symbol><symbol id="icon-stars" viewBox="0 0 100 16"><path d="M7.82.519c.296-.692 1.305-.692 1.602 0L11.17 4.6c.125.291.407.49.731.516l4.54.353c.77.06 1.081.991.495 1.479l-3.459 2.876a.828.828 0 0 0-.28.835l1.057 4.3c.18.728-.637 1.304-1.296.914l-3.886-2.305a.89.89 0 0 0-.904 0l-3.887 2.305c-.659.39-1.475-.186-1.296-.914l1.057-4.3a.828.828 0 0 0-.28-.835L.304 6.949C-.282 6.46.03 5.529.8 5.469l4.54-.352a.866.866 0 0 0 .732-.516L7.82.519ZM28.51.519c.296-.692 1.305-.692 1.601 0l1.75 4.082c.124.291.407.49.731.516l4.54.353c.769.06 1.08.991.495 1.479l-3.459 2.876a.828.828 0 0 0-.28.835l1.057 4.3c.18.728-.637 1.304-1.296.914l-3.886-2.305a.89.89 0 0 0-.905 0l-3.886 2.305c-.659.39-1.475-.186-1.296-.914l1.056-4.3a.828.828 0 0 0-.28-.835l-3.458-2.876c-.586-.488-.274-1.42.495-1.48l4.54-.352a.866.866 0 0 0 .732-.516L28.509.519ZM49.199.519c.296-.692 1.306-.692 1.602 0L52.55 4.6c.125.291.407.49.732.516l4.54.353c.768.06 1.08.991.494 1.479l-3.459 2.876a.828.828 0 0 0-.28.835l1.058 4.3c.179.728-.638 1.304-1.296.914l-3.887-2.305a.89.89 0 0 0-.904 0l-3.887 2.305c-.659.39-1.475-.186-1.296-.914l1.057-4.3a.828.828 0 0 0-.28-.835l-3.459-2.876c-.586-.488-.274-1.42.495-1.48l4.54-.352a.866.866 0 0 0 .732-.516L49.199.519ZM69.889.519c.296-.692 1.305-.692 1.602 0L73.24 4.6c.125.291.407.49.731.516l4.54.353c.769.06 1.08.991.495 1.479l-3.459 2.876a.828.828 0 0 0-.28.835l1.057 4.3c.18.728-.637 1.304-1.296.914l-3.886-2.305a.89.89 0 0 0-.905 0l-3.886 2.305c-.659.39-1.475-.186-1.296-.914l1.056-4.3a.828.828 0 0 0-.279-.835l-3.459-2.876c-.586-.488-.274-1.42.495-1.48l4.54-.352a.866.866 0 0 0 .732-.516L69.889.519ZM90.578.519c.297-.692 1.306-.692 1.602 0L93.93 4.6c.124.291.407.49.73.516l4.54.353c.77.06 1.082.991.496 1.479l-3.46 2.876a.828.828 0 0 0-.279.835l1.057 4.3c.18.728-.637 1.304-1.296.914l-3.887-2.305a.89.89 0 0 0-.904 0l-3.887 2.305c-.658.39-1.475-.186-1.296-.914l1.057-4.3a.828.828 0 0 0-.28-.835l-3.458-2.876c-.586-.488-.274-1.42.495-1.48l4.54-.352a.866.866 0 0 0 .731-.516L90.58.519Z" fill="#FFE550"/></symbol><symbol id="icon-btn-arrow" viewBox="0 0 15 15" fill="currentColor"><path fill-rule="evenodd" clip-rule="evenodd" d="M10.136 7.123a.395.395 0 0 1 0 .558L6.11 11.71a.395.395 0 0 1-.559 0l-.186-.186a.395.395 0 0 1 0-.559l3.562-3.562L5.364 3.84a.395.395 0 0 1 0-.559l.186-.186a.395.395 0 0 1 .559 0l4.027 4.028Z"/></symbol><symbol id="icon-error" viewBox="0 0 12 12" fill="none" stroke="currentColor"><path d="M6 4.286v2.571M6 9.857A.429.429 0 1 0 6 9a.429.429 0 0 0 0 .857Z" stroke-width=".857" stroke-linecap="round" stroke-linejoin="round"/><path d="M6.763.9a.857.857 0 0 0-1.525 0L.523 10.328a.857.857 0 0 0 .763 1.243h9.429a.857.857 0 0 0 .763-1.242L6.763.899Z" stroke-width=".857" stroke-linecap="round" stroke-linejoin="round"/></symbol></defs></svg>