<svg version="1.0" xmlns="http://www.w3.org/2000/svg" width="933.333" height="933.333" viewBox="0 0 700 700"><path d="M103.3 97.2c-16.9 2.5-29.7 13.3-35.4 30l-2.2 6.3V258c0 68.5.3 128.3.7 133 3.9 48.6 23.6 97.6 55.2 137 8.7 11 30.5 32.7 41.4 41.4 40 31.7 85.3 51.9 136 60.5 6.3 1.1 14.9 2.3 19 2.6 4.1.4 8.6.9 10 1.1 3.1.5 39.4.5 43.5 0 1.7-.2 6.6-.7 11-1.2 4.4-.4 8.2-.8 8.5-.9.3 0 3.2-.5 6.5-.9 7.8-1 30.1-6 39-8.7 15-4.6 29.6-10.3 47.5-18.7 14.6-6.9 37.4-21.4 53-33.9 8.1-6.4 29-26.6 35.7-34.5 35.5-41.3 56.8-92.1 60.9-145.3 1.2-15.4.7-253.6-.5-258.9-2.7-11.2-10.7-22.3-20.5-28-9.1-5.3-22.8-7.3-32.6-4.6-10.5 2.8-15 6.3-41.3 32.6-14 14-25.7 25.4-26.1 25.4-.4 0-4.6-2.3-9.3-5-52-30.7-114.3-45.1-175.8-40.6-45.8 3.3-92.1 17.7-130.9 40.6-6.7 4-9 4.9-10.3 4.1-1-.6-12.7-12-26.1-25.5-18.2-18.3-25.8-25.2-30-27.4-9.2-4.9-17.5-6.4-26.9-5zm12.4 49.6c4.9 4.6 6 6.1 5 7.1-.9 1-.8 1.1.5.6 2-.8 6.2 3 5.2 4.7-.4.6-.3.8.4.4 1.4-.9 10.5 8.1 9.6 9.6-.4.6-.3.8.4.4 1.3-.8 7.3 4.9 7 6.6-.2.7.3 1.2.9 1 2-.3 5.5 3.7 4.8 5.6-.5 1.4-.4 1.4.6.5 1-1 2.3-.2 6.1 3.8 2.6 2.8 4.5 5.6 4.1 6.1-.3.7-.1.8.5.4 1.7-1 5.5 3.2 4.7 5.2-.5 1.3-.4 1.4.6.5.9-.9 1.9-.5 4.5 1.9 4.5 4.3 8.1 5.6 14.5 5.4 5.2-.2 12.7-2.7 13.9-4.6.3-.5 4.1-3.2 8.4-6 6.6-4.3 8.1-4.9 9.4-3.8 1.4 1 1.5 1 .5-.2-1-1.1-.6-1.8 2-3.5 4-2.8 16-8.5 16.9-8.2.4.1 1.4-.7 2.2-1.8 1.6-2.1 1.7-2 2 3.8.1 2.1-.2 4-.6 4.3-.5.3-.4 1.2.3 2 .9 1.1.8 1.4-.2 1.4-1.1 0-1.1.2.1 1 1.3.9 1.3 1.1 0 2-1 .6-1.1 1-.2 1 .6 0 1.2.7 1.2 1.6 0 .9-.5 1.2-1.2.8-.7-.5-.8-.3-.2.7 1.4 2.3 1.7 6.2.3 5.3-.9-.5-.9-.3-.3.7 1.3 2 1.2 22.9-.1 22.9-.6 0-.7.3 0 .8 1.4 1 1.5 5.2.1 5.2-.6 0-.6.4.2.9 1.7 1.1 1.7 2.1 0 3.2-.7.5-.8.9-.2.9 1.2 0 1.3 4.5.1 5.6-.4.4-.7 1.2-.7 1.8 0 .6.5.4 1-.4.8-1.2 1-1.1 1 .7 0 1.3 0 2.6-.1 2.9 0 .4.3 1 .8 1.3 1.6 1.2 4.2 6.8 3.5 7.6-.4.5-.2.5.5.2.6-.4 2.4.3 4 1.6 1.5 1.3 4.2 2.8 5.8 3.2 4 1.1 13.5 1.3 13.5.3 0-.4.9-.8 2-.8 2.5 0 9.2-6.7 11.6-11.7 1.6-3.4 1.8-6.7 1.9-30.3 0-14.6.4-27.1.9-27.9.6-.9.5-1.2-.1-.8-1.3.8-1.1-5.2.2-7.3.5-.8.4-1.1-.2-.7-1.3.8-1.1-5.2.2-7.3.5-.8.4-1.1-.2-.7-1.2.8-1.1-9.2.2-11.2.6-1 .4-1.2-.5-.6s-1.1.4-.5-.4c.4-.7 1.8-1.1 3.1-.8 1.3.2 2.1 0 1.8-.5-.4-.5.2-.8 1.2-.7 1.1.2 2.4 0 3-.3.6-.4 2.1-.9 3.5-1.1 1.3-.3 4-.8 5.9-1.2 1.9-.3 4.6-.8 6-.9 1.4-.2 4.8-.7 7.5-1 2.8-.4 6.4-.9 8.1-1.1l3.1-.5.1 44.2c0 24.4.3 45 .6 45.8.3.8.7 2.6.8 4 .4 3.2 6.8 11 9 11 .5 0 .6.5.2 1.2-.4.7-.3.8.4.4.6-.4 2.4-.1 3.9.7 3.8 1.9 12.1 1.4 17-1.1 2.2-1.2 4.3-1.9 4.7-1.7.3.3.4.2.1-.1-.2-.4.9-2.2 2.5-4.1 1.7-1.8 3-4 3-4.8 0-.8.4-1.5.9-1.5 1 0 1.3-15.7 1.1-51-.1-12.4-.1-23.2-.1-24 .1-.8.2-5.5.2-10.3 0-7.8.2-8.7 1.7-8.3.9.3 4.1.7 6.9.8 2.9.2 5.3.5 5.3.8 0 .3 2.1.6 4.7.7 5.6.3 19.4 3.2 20.7 4.3.5.5 1.5.6 2.2.3 1.6-.6 1.6-.6 1.8 5.9 0 2.7-.3 4.8-.9 4.8-.6 0-.6.3.1.8 1.1.8 1.2 16.7.1 17.8-.3.4-.3 1.2.1 1.8 1 1.7.8 9-.3 9.8-.7.5-.7.8 0 .8.8 0 1.1 20.3.5 33.5-.1 2.3 1 9 2.1 12.3 2.7 8.1 14.8 15.3 23 13.6 1.9-.4 4.4-.8 5.6-.8 1.1-.1 1.9-.4 1.6-.9-.4-.6 1.2-1.1 2.9-.8.5 0 .7-.2.6-.7-.1-.4.9-2 2.4-3.5 3.3-3.5 5.8-8.6 6-12.4.1-1.5.6-3.4 1.2-4.2.8-1.1.8-1.3 0-.8-.7.4-1.1-.8-1-3.7.1-2.7.5-4.2 1.1-3.8.6.3.4-.1-.3-1-.9-1.1-1-1.8-.2-2.3.6-.3.7-1.2.3-1.8-1.2-1.8-1.1-10.7 0-10 .6.4.7.1.1-.8-1.1-1.8-1.2-4.8-.2-7.7.5-1.6.4-2.1-.3-1.6-1.1.6-.5-5.8.8-7.9.4-.6.1-.7-.6-.2-1 .5-1.1-.2-.7-3 .4-2.1.9-4.2 1.3-4.8.3-.5.1-.7-.4-.4-.8.5-1.1-7.4-.4-11.4.1-.3 2.4.5 5.1 1.9 4.3 2.1 4.9 2.7 3.8 4.1-1 1.3-1 1.4.2.3 1.8-1.5 3.4-1.6 2.4 0-.4.7-.3.8.4.4 1.6-1 7.4 2.2 6.6 3.6-.4.7-.3.8.5.4 1.1-.7 9.9 4.1 12.8 7 .8.8 1.8 1.4 2.3 1.4.5 0 1.5.6 2.2 1.3 3.1 2.9 11.3 7.7 13.7 7.9 6 .4 12.1.3 12.1-.3 0-.4 1.1-1 2.5-1.3 1.4-.4 4.6-2.6 7.2-5.1 3.9-3.8 4.9-4.3 6.2-3.2 1.4 1 1.4 1 .3-.4-1-1.4.3-3.1 9.4-12.3 9.2-9.2 10.9-10.5 12.3-9.4 1.4 1.1 1.4 1.1.3-.3-1.1-1.5-.5-2.5 4.4-7.3 4.8-4.9 5.8-5.5 7.3-4.4 1.4 1.1 1.4 1.1.3-.3-1.1-1.4.1-3 8.5-11.3 5.3-5.3 9.7-9.6 9.7-9.6.1 0 .1 15.3.1 34 0 32.9 0 33.9-2 35-2 1-2 1 0 .5s2.1-.1 2 13c0 7.4-.3 13.5-.8 13.5-.4 0-.5.6 0 1.2 1 1.7 1.1 30.8 0 30.8-.4 0-.5.6 0 1.2.4.7.8 5.2.8 10 .1 7.8-.1 8.8-2 9.7-2 1.1-2 1.1 0 .6 2-.5 2.1-.1 2 13 0 7.4-.3 13.5-.8 13.5-.4 0-.5.6 0 1.2.4.7.8 5.2.8 10 .1 7.8-.1 8.8-2 9.7-2 1.1-2 1.1 0 .6 2-.5 2.1-.1 2 13 0 7.4-.4 13.5-.9 13.5-.4 0-.4.6.1 1.2 2.1 2.8.1 30.2-2.5 33.3-1.6 1.8-1.6 1.9 0 .6 1.8-1.4 1.8-1.6.3 5.1-1.8 8-2.1 9.9-2.4 13.1-.1 1.1-.6 1.6-1.3 1.1-1-.5-1-.4-.1.6.7.8.8 1.9.3 2.9-.5.9-1.4 3.7-2 6.3-.8 2.8-1.7 4.5-2.3 4.1-.6-.3-.7-.1-.3.5 1 1.6-.4 6.3-1.7 5.5-.6-.3-.7-.1-.3.6.4.6-.1 3.5-1.2 6.4-2.8 7.4-14 29.1-16.3 31.6-1.1 1.2-1.6 2.1-1.2 2.1.4 0 .1.6-.8 1.3-.9.7-1.6 1.4-1.6 1.7-.2 2-4.7 7.9-5.6 7.3-.7-.3-.9-.3-.5.2 1.2 1.2-5 9.5-16.1 21.6-3 3.2-5.8 5.6-6.3 5.3-.5-.3-.7-.2-.6.3.5 1.4-6.4 8.3-7.5 7.6-.6-.3-.7-.2-.4.4.6 1-10 10.4-18.3 16.2-9.6 6.7-17.8 12-19.1 12.3-.8.2-1.8.8-2.4 1.5-.5.6-4.7 3.1-9.3 5.4-7 3.7-8.5 4.1-9.4 2.9-.8-1.2-.9-1.2-.4.3.4 1.1 0 2-1.2 2.3-.9.4-4.1 1.7-6.9 3.1-2.9 1.3-5.7 2.2-6.2 1.9-.5-.3-1.1 0-1.4.8-.3.8-1.6 1.3-3.1 1.2-1.4-.2-2.3 0-2.1.5.7 1-6.2 3.2-8.1 2.5-.8-.3-1.2-.2-.9.3.3.5-1.8 1.6-4.7 2.4-12.4 3.5-20.6 5.6-24.8 6.2-2.5.4-5.4.9-6.5 1.1-4.1.8-9.2 1.5-15.7 2l-6.8.6-.1-7.8c-.1-4.4 0-8.4.1-8.9.2-.6.2-9.3.1-19.3-.1-16 .2-18.7 1.7-20.8.9-1.3 2.3-2.4 3.1-2.4.8 0 1.2-.3.8-.6-.8-.8 4.6-6.3 5.6-5.7.4.2.7-.3.7-1.2 0-.9.5-1.3 1-1 .6.3 1 .2 1-.4 0-1.5 4.6-6.2 5.3-5.4.4.3.7.1.7-.5 0-1.5 7.8-9.2 9.3-9.2.6 0 .8-.3.4-.6-.8-.8 4.6-6.3 5.6-5.7.4.2.7-.3.7-1.1 0-.9.4-1.6.9-1.6 1 0 5.4-6.6 5.9-9 .2-.8.3-2.3.3-3.3 0-.9.6-1.7 1.2-1.7.8 0 .8-.3.2-.8-1-.7-1.2-1.6-1.7-7.9-.1-1.7-.5-3-.9-2.7-.4.2-1-.5-1.4-1.6-.8-2.6-5.1-6.6-8.7-8.1-1.5-.6-2.6-1.5-2.3-1.8.2-.4-2.6-.7-6.3-.6-5 .1-8.1.9-12.2 2.8-3 1.5-5.2 2.7-4.8 2.7.8 0-15.3 16.3-16.8 16.9-.5.3-1.8 1.6-2.9 3-2.2 2.9-8.5 9.1-9.2 9.1-.3 0-.2-.7.1-1.6.3-.8.2-1.3-.3-1-.5.3-7.9-6.4-16.4-14.9-8.5-8.4-15.8-15.1-16.1-14.8-.3.3-1.4-.1-2.3-.9-2.2-1.9-15.4-1.7-17.3.2-.3.3-2.2 1.6-4.2 3-2.1 1.4-4.3 3.7-4.9 5.2-.6 1.5-1.4 2.6-1.8 2.4-.3-.2-.7 1-.8 2.6-.1 1.7-.7 3.6-1.3 4.3-.8.9-.8 1.5 0 2 .6.3.8 1.1.4 1.6-.3.5.2 3.3 1.2 6.2 1.5 4.6 4.1 7.5 22 25.5l20.3 20.3v27.8l-.1 27.7-6.7-.8c-3.6-.4-7.5-1-8.6-1.2-1.1-.2-3.5-.5-5.3-.5-1.9-.1-3.1-.5-2.7-1.1.3-.5 0-.7-.9-.4-1.2.5-7-.5-13.8-2.2-.5-.1-1.5-.2-2.4-.3-.8 0-1.3-.5-1-.9.3-.4-.7-.7-2.2-.7-2.8.2-19.6-4.8-18.8-5.5.2-.3-.5-.6-1.7-.6-1.2-.1-4-1-6.2-1.9-2.2-1-4.2-1.9-4.5-2-5.1-1.4-28.5-12.7-31-15-.8-.7-1.9-1.5-2.5-1.7-.5-.2-.9-.7-.7-1.1.1-.5-.2-.6-.7-.2-1.2.7-12.1-6.3-12.1-7.7 0-.5-.4-.7-.9-.4-.5.3-4.2-2-8.3-5.1-9.1-7.2-11.9-9.9-11-10.9.4-.4.2-.4-.5 0-1.5.9-16.5-13.3-15.6-14.8.3-.6.2-.8-.2-.3-1.1 1-5.6-3.3-4.8-4.6.3-.6.1-.7-.5-.3-1.3.8-3.5-2.8-2.4-3.9.4-.5.2-.5-.5-.2-1.4.9-5.5-4.1-4.6-5.6.3-.5.2-.7-.4-.4-.9.6-3.7-2-5.8-5.4-.5-.9-2.9-4.4-5.3-7.8-2.3-3.3-3.9-6.1-3.5-6.1.4 0-.1-.6-1-1.2-1.6-1.3-13.4-23.8-17.1-32.8-1-2.5-1.9-5.7-2-7.2 0-1.4-.4-2.4-.8-2.2-.4.3-1-.8-1.3-2.3-.4-1.5-1.1-3.7-1.6-4.9-.6-1.1-.9-2.4-.8-3 .1-.5 0-1.2-.1-1.7-.1-.4-.3-1-.5-1.5-.1-.4-.5-1.4-.8-2.2-.4-.8-.8-2.9-1.1-4.5-.2-1.7-.5-3-.6-3-.4 0-1-4.3-1.2-8.2-.2-2.4-.6-4.3-1-4.3s-.7-.8-.6-1.8c0-.9-.3-4.8-.6-8.5-.5-5.4-.4-6.7.6-6.1.7.4.5-.1-.4-1.2-1.1-1.3-1.4-2.4-.8-3.4.5-.8.6-1.9.2-2.5-1.1-1.6-.9-24.4.2-23.8.5.4.6.1.1-.8-1.3-2-1.4-12-.2-11.2.6.4.7.1.2-.8-.5-.7-1-2.4-1.1-3.7-.2-2.1-.1-2.2 1.4-1 1.6 1.2 1.6 1.1.2-.6-1.6-2.1-2.1-6.4-.8-7.2.4-.3.5-1.1.1-1.7-1.2-1.9-1.1-13.7.1-13.7.7 0 .8-.3.1-.8-1.4-1-1.5-15.3-.1-14.5.6.3.6 0-.1-.7-.8-.9-.9-1.9-.3-3.1.6-1 .6-2 .2-2.3-1.1-.6-.9-20.7.2-22.5.6-1 .5-1.2-.2-.7-1.4.9-1.5-.3-.3-2.4.6-.8.7-1.9.3-2.5-1.1-1.7-1-6 .2-6.7.8-.5.7-.8-.2-.8-.9 0-1-.5-.3-1.9.6-1 .7-2.1.4-2.5-1.2-1.2-1.1-6.1.1-6.8.7-.5.7-.8-.3-.8s-.9-.6.5-2.8c1.1-1.8 1.3-2.3.3-1.5-1.3 1-1.5-.4-1.5-10.5 0-6.8.5-12 1.1-12.4.6-.5.5-.8-.3-.8-.9 0-1-.5-.3-1.9.6-1 .7-2.1.4-2.5-1.3-1.2-1.1-10.6.1-9.9.6.3.6 0-.1-.7-.8-.9-.9-1.9-.3-3.1.6-1 .6-2 .2-2.3-.7-.4-.9-23.6-.2-26.1.1-.6.1-1.2 0-1.5-.8-1.8-.5-6.6.4-7.2.8-.5.7-.8-.2-.8-.9 0-1-.5-.3-1.9.6-1 .7-2.1.4-2.5-1.2-1.2-1.2-6.6 0-6.6.8 0 .8-.3.2-.8-1.4-1-1.5-4.3-.1-3.5.6.3.6 0-.1-.8-1.2-1.2-1.7-2.9-1-2.9.1 0 3 2.6 6.4 5.8z"/><path d="M587.6 148.7c-.6 1.4-.5 1.5.5.6.7-.7 1-1.5.7-1.8-.3-.3-.9.2-1.2 1.2zM115.6 168.2c.3.5 1 .6 1.5.3 1.3-.9 1.1-1.2-.6-1.2-.8 0-1.2.4-.9.9zM582.6 167.8c-.3.5.1.9.9.9s1.2-.4.9-.9c-.3-.4-.7-.8-.9-.8-.2 0-.6.4-.9.8zM570.6 175.8c-.3.5.1.9.9.9s1.2-.4.9-.9c-.3-.4-.7-.8-.9-.8-.2 0-.6.4-.9.8zM555.5 179.1c-.4.6-.5 1.2-.2 1.5.2.3.7-.2 1-1.1.7-1.7.1-2-.8-.4zM574.6 183.8c-.3.5.1.9.9.9s1.2-.4.9-.9c-.3-.4-.7-.8-.9-.8-.2 0-.6.4-.9.8zM119.3 187.5c0 .8.4 1.2.9.9.5-.3.6-1 .3-1.5-.9-1.3-1.2-1.1-1.2.6zM383 187.9c0 .6.4 1.3 1 1.6.6.3.7-.1.4-.9-.7-1.8-1.4-2.1-1.4-.7zM111 192.1c0 .5.5.7 1 .4.6-.3 1-.8 1-1.1 0-.2-.4-.4-1-.4-.5 0-1 .5-1 1.1zM587.6 196.7c-.6 1.4-.5 1.5.5.6.7-.7 1-1.5.7-1.8-.3-.3-.9.2-1.2 1.2zM483.6 199.8c-.3.5.1.9.9.9s1.2-.4.9-.9c-.3-.4-.7-.8-.9-.8-.2 0-.6.4-.9.8zM471.3 203.5c0 .8.4 1.2.9.9.5-.3.6-1 .3-1.5-.9-1.3-1.2-1.1-1.2.6zM207.3 207.5c0 .8.4 1.2.9.9.5-.3.6-1 .3-1.5-.9-1.3-1.2-1.1-1.2.6zM211 223.4c0 .2.7.7 1.6 1 .8.3 1.2.2.9-.4-.6-1-2.5-1.4-2.5-.6zM547.6 232.2c.3.5 1 .6 1.5.3 1.3-.9 1.1-1.2-.6-1.2-.8 0-1.2.4-.9.9zM570.6 232.2c.3.5 1 .6 1.5.3 1.3-.9 1.1-1.2-.6-1.2-.8 0-1.2.4-.9.9zM163.6 240.2c.3.5 1 .6 1.5.3 1.3-.9 1.1-1.2-.6-1.2-.8 0-1.2.4-.9.9zM587.6 244.7c-.6 1.4-.5 1.5.5.6.7-.7 1-1.5.7-1.8-.3-.3-.9.2-1.2 1.2zM187 248c0 .5.5 1 1.1 1 .5 0 .7-.5.4-1-.3-.6-.8-1-1.1-1-.2 0-.4.4-.4 1zM283 251.9c0 .6.4 1.3 1 1.6.6.3.7-.1.4-.9-.7-1.8-1.4-2.1-1.4-.7zM115.6 264.2c.3.5 1 .6 1.5.3 1.3-.9 1.1-1.2-.6-1.2-.8 0-1.2.4-.9.9zM423.5 263.9c-.3.5-.2 1.2.3 1.5.5.3.9-.1.9-.9 0-1.7-.3-1.9-1.2-.6zM255.3 267.5c0 .8.4 1.2.9.9.5-.3.6-1 .3-1.5-.9-1.3-1.2-1.1-1.2.6zM367.5 270.9c-.3.5-.2 1.2.3 1.5.5.3.9-.1.9-.9 0-1.7-.3-1.9-1.2-.6zM451.6 272.2c.3.5 1 .6 1.5.3 1.3-.9 1.1-1.2-.6-1.2-.8 0-1.2.4-.9.9zM247.3 276.5c0 .8.4 1.2.9.9.5-.3.6-1 .3-1.5-.9-1.3-1.2-1.1-1.2.6zM407.5 275.9c-.3.5-.2 1.2.3 1.5.5.3.9-.1.9-.9 0-1.7-.3-1.9-1.2-.6zM587.6 276.7c-.6 1.4-.5 1.5.5.6.7-.7 1-1.5.7-1.8-.3-.3-.9.2-1.2 1.2zM387.6 280.2c.3.5 1 .6 1.5.3 1.3-.9 1.1-1.2-.6-1.2-.8 0-1.2.4-.9.9zM475 280c0 .5.5 1 1.1 1 .5 0 .7-.5.4-1-.3-.6-.8-1-1.1-1-.2 0-.4.4-.4 1zM119.3 283.5c0 .8.4 1.2.9.9.5-.3.6-1 .3-1.5-.9-1.3-1.2-1.1-1.2.6zM327 284.1c0 .5.5.7 1 .4.6-.3 1-.8 1-1.1 0-.2-.4-.4-1-.4-.5 0-1 .5-1 1.1zM111 288.1c0 .5.5.7 1 .4.6-.3 1-.8 1-1.1 0-.2-.4-.4-1-.4-.5 0-1 .5-1 1.1zM519.3 292.5c0 .8.4 1.2.9.9.5-.3.6-1 .3-1.5-.9-1.3-1.2-1.1-1.2.6zM447.5 295.1c-.4.6-.5 1.2-.2 1.5.2.3.7-.2 1-1.1.7-1.7.1-2-.8-.4zM243.6 295.8c-.3.5.1.9.9.9s1.2-.4.9-.9c-.3-.4-.7-.8-.9-.8-.2 0-.6.4-.9.8zM479.5 299.1c-.4.6-.5 1.2-.2 1.5.2.3.7-.2 1-1.1.7-1.7.1-2-.8-.4zM255.5 300c.3.5.8 1 1.1 1 .2 0 .4-.5.4-1 0-.6-.5-1-1.1-1-.5 0-.7.4-.4 1zM175.6 304.2c.3.5 1 .6 1.5.3 1.3-.9 1.1-1.2-.6-1.2-.8 0-1.2.4-.9.9zM239.6 303.8c-.3.5.1.9.9.9s1.2-.4.9-.9c-.3-.4-.7-.8-.9-.8-.2 0-.6.4-.9.8zM271.5 303.9c-.3.5-.2 1.2.3 1.5.5.3.9-.1.9-.9 0-1.7-.3-1.9-1.2-.6zM463.3 304.5c0 .8.4 1.2.9.9.5-.3.6-1 .3-1.5-.9-1.3-1.2-1.1-1.2.6zM519.3 315.5c0 .8.4 1.2.9.9.5-.3.6-1 .3-1.5-.9-1.3-1.2-1.1-1.2.6zM179.5 320c-.3.5-.1 1 .4 1 .6 0 1.1-.5 1.1-1 0-.6-.2-1-.4-1-.3 0-.8.4-1.1 1zM362.7 320.1c.7.7 1.5 1 1.8.7.3-.3-.2-.9-1.2-1.2-1.4-.6-1.5-.5-.6.5zM415 319.4c0 .2.7.7 1.6 1 .8.3 1.2.2.9-.4-.6-1-2.5-1.4-2.5-.6zM135.5 323.9c-.3.5-.2 1.2.3 1.5.5.3.9-.1.9-.9 0-1.7-.3-1.9-1.2-.6zM587.6 324.7c-.6 1.4-.5 1.5.5.6.7-.7 1-1.5.7-1.8-.3-.3-.9.2-1.2 1.2zM315 328c0 .5.5 1 1.1 1 .5 0 .7-.5.4-1-.3-.6-.8-1-1.1-1-.2 0-.4.4-.4 1zM295.3 331.5c0 .8.4 1.2.9.9.5-.3.6-1 .3-1.5-.9-1.3-1.2-1.1-1.2.6zM174.6 336.2c.3.5 1 .6 1.5.3 1.3-.9 1.1-1.2-.6-1.2-.8 0-1.2.4-.9.9zM367.6 335.8c-.3.5.1.9.9.9s1.2-.4.9-.9c-.3-.4-.7-.8-.9-.8-.2 0-.6.4-.9.8zM475 336.1c0 .5.5.7 1 .4.6-.3 1-.8 1-1.1 0-.2-.4-.4-1-.4-.5 0-1 .5-1 1.1zM527.6 335.8c-.3.5.1.9.9.9s1.2-.4.9-.9c-.3-.4-.7-.8-.9-.8-.2 0-.6.4-.9.8zM138.6 343.8c-.3.5.1.9.9.9s1.2-.4.9-.9c-.3-.4-.7-.8-.9-.8-.2 0-.6.4-.9.8zM227.6 344.7c-.6 1.4-.5 1.5.5.6.7-.7 1-1.5.7-1.8-.3-.3-.9.2-1.2 1.2zM467.6 344.7c-.6 1.4-.5 1.5.5.6.7-.7 1-1.5.7-1.8-.3-.3-.9.2-1.2 1.2zM215.8 351.1c1 1.4 1 1.8-.4 2.3-.9.3-2.1.3-2.6-.1-.7-.3-.8-.1-.4.5.4.7.4 1.2-.1 1.2-2.2 0-9.8 8.8-12.4 14.3-3.2 6.8-3.9 15.6-1.8 23.2 1.2 4.3 6.1 12 9.3 14.7 3.7 3.1 4.1 3.3 8.1 5.3 4.5 2.1 5.6 2.4 10.2 2.8 1.8.1 3.3.6 3.3 1 0 .5.5.5 1.2.1s2.4-.9 3.8-1.1c4.3-.5 5.5-.8 6.8-1.7.7-.4 1.6-.6 1.9-.3.2.3 1.3-.2 2.4-1.1 1.1-.9 2.2-1.6 2.4-1.5.3.2 1.9-1.2 3.6-3 1.7-1.7 3.7-3.1 4.3-2.9.6.2.8.1.4-.3-.3-.4.7-2.8 2.3-5.3 1.6-2.5 2.9-5.4 2.9-6.4s.3-1.8.8-1.8c.4 0 .7-2.4.7-5.3-.1-2.8.4-5.8 1-6.6.8-1.2.7-1.3-.4-.6-1.1.6-1.3.3-.9-1.3.4-1.2.2-2.2-.4-2.2-.6 0-.8-1.1-.6-2.5.3-1.3.2-2.3-.1-2-.4.2-1.6-1.3-2.7-3.3-1-2-2.5-4.3-3.2-5-.7-.8-1-1.8-.6-2.3.3-.5.2-.9-.3-.8-1.8.3-3.6-.1-3-.8.4-.3-.3-1.2-1.6-1.8-1.2-.7-3.4-1.9-4.9-2.7-1.5-.8-2.6-1.7-2.3-1.9.2-.3-.4-.5-1.3-.6-.9-.1-4.9-.4-8.8-.8-4.7-.5-8.3-.4-10.8.5-3 .9-4 .9-5.4-.2-1.5-1.1-1.6-1.1-.4.3zM459.2 351.9c-5 1.9-14.2 8.3-14.2 9.9 0 .4-1.1 1.9-2.5 3.4s-2.5 2.9-2.4 3c0 .2-.2 1.5-.6 3-.4 1.7-1.2 2.5-1.9 2.1-.7-.4-.7-.2.1.7.7.8.9 2 .4 2.9-.9 2-.8 12.2.2 13.8.5.7.5 1.3.1 1.3-.3 0-.1.7.6 1.5.6.8.9 1.9.5 2.5-.3.5-.2 1 .4 1 .5 0 1.2.8 1.5 1.7 1.8 5.6 16.4 16.3 22.2 16.3 1.1 0 2.5.5 3.1 1.1.8.8 1.3.8 1.8-.1.5-.8 1-.8 2.1.1.8.6 1.4.7 1.4.2 0-.8 3.1-1.4 8.7-1.7 1.1-.1 1.9-.4 1.6-.9-.4-.6 1.2-1.1 3-.8.4 0 .7-.4.7-1s.7-.8 1.6-.5c.8.3 1.3.2 1-.3-.3-.4.5-1.3 1.7-2 2.5-1.4 8.7-9.2 8.7-10.9 0-.7.4-1.2.9-1.2 1.3 0 3.1-8.2 3.1-14.3 0-5.1-2.3-13.9-4.2-16.4-.5-.7-.6-1.8-.2-2.4.4-.7.3-.9-.3-.6-1.5.9-5.7-3.9-4.8-5.4.5-.8.4-1-.4-.5-1.4.9-6.3-2.8-5.3-3.9.4-.5.2-.5-.5-.1s-2.7-.1-4.5-1c-5-2.6-17.2-2.9-23.6-.5zM179 351.4c0 .2.7.7 1.6 1 .8.3 1.2.2.9-.4-.6-1-2.5-1.4-2.5-.6zM303.5 366.9c-.3.5-.2 1.2.3 1.5.5.3.9-.1.9-.9 0-1.7-.3-1.9-1.2-.6zM122.6 367.8c-.3.5.1.9.9.9s1.2-.4.9-.9c-.3-.4-.7-.8-.9-.8-.2 0-.6.4-.9.8zM287.6 372.7c-.6 1.4-.5 1.5.5.6.7-.7 1-1.5.7-1.8-.3-.3-.9.2-1.2 1.2zM155 384.1c0 .5.5.7 1 .4.6-.3 1-.8 1-1.1 0-.2-.4-.4-1-.4-.5 0-1 .5-1 1.1zM266.6 392.2c.3.5 1 .6 1.5.3 1.3-.9 1.1-1.2-.6-1.2-.8 0-1.2.4-.9.9zM303 400c0 .5.5 1 1.1 1 .5 0 .7-.5.4-1-.3-.6-.8-1-1.1-1-.2 0-.4.4-.4 1zM323.6 399.8c-.3.5.1.9.9.9s1.2-.4.9-.9c-.3-.4-.7-.8-.9-.8-.2 0-.6.4-.9.8zM555 424.1c0 .5.5.7 1 .4.6-.3 1-.8 1-1.1 0-.2-.4-.4-1-.4-.5 0-1 .5-1 1.1zM479.5 427.1c-.4.6-.5 1.2-.2 1.5.2.3.7-.2 1-1.1.7-1.7.1-2-.8-.4zM143.6 432.2c.3.5 1 .6 1.5.3 1.3-.9 1.1-1.2-.6-1.2-.8 0-1.2.4-.9.9zM399.5 432c.3.5.8 1 1.1 1 .2 0 .4-.5.4-1 0-.6-.5-1-1.1-1-.5 0-.7.4-.4 1zM463.3 432.5c0 .8.4 1.2.9.9.5-.3.6-1 .3-1.5-.9-1.3-1.2-1.1-1.2.6zM279.5 436c-.3.5-.1 1 .4 1 .6 0 1.1-.5 1.1-1 0-.6-.2-1-.4-1-.3 0-.8.4-1.1 1zM383.5 436c-.3.5-.1 1 .4 1 .6 0 1.1-.5 1.1-1 0-.6-.2-1-.4-1-.3 0-.8.4-1.1 1zM415 435.9c0 .6.4 1.3 1 1.6.6.3.7-.1.4-.9-.7-1.8-1.4-2.1-1.4-.7zM543.3 443.5c0 .8.4 1.2.9.9.5-.3.6-1 .3-1.5-.9-1.3-1.2-1.1-1.2.6zM535.4 447.4c.1.8.5 1.8.8 2.2.4.3.5-.1.4-1-.1-.8-.5-1.8-.8-2.2-.4-.3-.5.1-.4 1zM259.6 447.8c-.3.5.1.9.9.9s1.2-.4.9-.9c-.3-.4-.7-.8-.9-.8-.2 0-.6.4-.9.8zM558.6 447.8c-.3.5.1.9.9.9s1.2-.4.9-.9c-.3-.4-.7-.8-.9-.8-.2 0-.6.4-.9.8zM135.3 452.5c0 .8.4 1.2.9.9.5-.3.6-1 .3-1.5-.9-1.3-1.2-1.1-1.2.6zM527.5 451.9c-.3.5-.2 1.2.3 1.5.5.3.9-.1.9-.9 0-1.7-.3-1.9-1.2-.6zM255.6 455.8c-.3.5.1.9.9.9s1.2-.4.9-.9c-.3-.4-.7-.8-.9-.8-.2 0-.6.4-.9.8zM379.3 460.5c0 .8.4 1.2.9.9.5-.3.6-1 .3-1.5-.9-1.3-1.2-1.1-1.2.6zM367.6 463.3c.3 1 .9 1.5 1.2 1.2.3-.3 0-1.1-.7-1.8-1-.9-1.1-.8-.5.6zM426.7 480.1c.7.7 1.5 1 1.8.7.3-.3-.2-.9-1.2-1.2-1.4-.6-1.5-.5-.6.5zM511 479.9c0 .6.4 1.3 1 1.6.6.3.7-.1.4-.9-.7-1.8-1.4-2.1-1.4-.7zM159 484.1c0 .5.5.7 1 .4.6-.3 1-.8 1-1.1 0-.2-.4-.4-1-.4-.5 0-1 .5-1 1.1zM547.5 488c.3.5.8 1 1.1 1 .2 0 .4-.5.4-1 0-.6-.5-1-1.1-1-.5 0-.7.4-.4 1zM283.5 490.9c-.3.5-.2 1.2.3 1.5.5.3.9-.1.9-.9 0-1.7-.3-1.9-1.2-.6zM206.6 496.2c.3.5 1 .6 1.5.3 1.3-.9 1.1-1.2-.6-1.2-.8 0-1.2.4-.9.9zM431.6 495.8c-.3.5.1.9.9.9s1.2-.4.9-.9c-.3-.4-.7-.8-.9-.8-.2 0-.6.4-.9.8zM279.3 500.5c0 .8.4 1.2.9.9.5-.3.6-1 .3-1.5-.9-1.3-1.2-1.1-1.2.6zM210.5 512c-.3.6.1.7.9.4 1.8-.7 2.1-1.4.7-1.4-.6 0-1.3.4-1.6 1zM247 512.1c0 .5.5.7 1 .4.6-.3 1-.8 1-1.1 0-.2-.4-.4-1-.4-.5 0-1 .5-1 1.1zM527.3 512.5c0 .8.4 1.2.9.9.5-.3.6-1 .3-1.5-.9-1.3-1.2-1.1-1.2.6zM479 516c0 .5.5 1 1.1 1 .5 0 .7-.5.4-1-.3-.6-.8-1-1.1-1-.2 0-.4.4-.4 1zM518.7 520.1c.7.7 1.5 1 1.8.7.3-.3-.2-.9-1.2-1.2-1.4-.6-1.5-.5-.6.5zM218.6 528.2c.3.5 1 .6 1.5.3 1.3-.9 1.1-1.2-.6-1.2-.8 0-1.2.4-.9.9zM378.6 531.8c-.3.5.1.9.9.9s1.2-.4.9-.9c-.3-.4-.7-.8-.9-.8-.2 0-.6.4-.9.8zM499 539.4c0 .2.7.7 1.6 1 .8.3 1.2.2.9-.4-.6-1-2.5-1.4-2.5-.6zM323.6 543.8c-.3.5.1.9.9.9s1.2-.4.9-.9c-.3-.4-.7-.8-.9-.8-.2 0-.6.4-.9.8zM470 543.4c0 .2.8 1 1.8 1.7 1.5 1.3 1.6 1.2.3-.4s-2.1-2.1-2.1-1.3zM319 556c0 .5.5 1 1.1 1 .5 0 .7-.5.4-1-.3-.6-.8-1-1.1-1-.2 0-.4.4-.4 1zM303.3 560.5c0 .8.4 1.2.9.9.5-.3.6-1 .3-1.5-.9-1.3-1.2-1.1-1.2.6zM415.5 560c.3.5.8 1 1.1 1 .2 0 .4-.5.4-1 0-.6-.5-1-1.1-1-.5 0-.7.4-.4 1zM419.5 568c.3.5.8 1 1.1 1 .2 0 .4-.5.4-1 0-.6-.5-1-1.1-1-.5 0-.7.4-.4 1zM295.5 579.9c-.3.5-.2 1.2.3 1.5.5.3.9-.1.9-.9 0-1.7-.3-1.9-1.2-.6z"/></svg>