<svg aria-hidden="true" style="position:absolute;width:0;height:0;overflow:hidden" xmlns="http://www.w3.org/2000/svg">
  <defs>
    <symbol id="icon-arrow-left" viewBox="0 0 17 30" fill="currentColor">
      <path
        d="M0.450251 15.905L14.3828 29.18C14.6152 29.4016 14.9241 29.5253 15.2453 29.5253C15.5664 29.5253 15.8753 29.4016 16.1077 29.18L16.1228 29.165C16.2358 29.0576 16.3259 28.9283 16.3874 28.7849C16.449 28.6416 16.4807 28.4873 16.4807 28.3313C16.4807 28.1753 16.449 28.0209 16.3874 27.8776C16.3259 27.7343 16.2358 27.605 16.1228 27.4975L3.00275 14.9975L16.1228 2.50253C16.2358 2.3951 16.3259 2.26578 16.3874 2.12245C16.449 1.97911 16.4807 1.82476 16.4807 1.66878C16.4807 1.5128 16.449 1.35845 16.3874 1.21511C16.3259 1.07178 16.2358 0.942463 16.1228 0.83503L16.1078 0.82003C15.8753 0.598417 15.5664 0.474789 15.2453 0.474789C14.9241 0.474789 14.6152 0.598417 14.3828 0.82003L0.450251 14.095C0.32772 14.2118 0.230172 14.3522 0.163521 14.5077C0.0968686 14.6633 0.0625002 14.8308 0.0625002 15C0.0625002 15.1693 0.0968686 15.3368 0.163521 15.4923C0.230172 15.6479 0.32772 15.7883 0.450251 15.905Z" />
    </symbol>
    <symbol id="icon-burger" viewBox="0 0 28 28" fill="currentColor">
      <path
        d="M0.450251 15.905L14.3828 29.18C14.6152 29.4016 14.9241 29.5253 15.2453 29.5253C15.5664 29.5253 15.8753 29.4016 16.1077 29.18L16.1228 29.165C16.2358 29.0576 16.3259 28.9283 16.3874 28.7849C16.449 28.6416 16.4807 28.4873 16.4807 28.3313C16.4807 28.1753 16.449 28.0209 16.3874 27.8776C16.3259 27.7343 16.2358 27.605 16.1228 27.4975L3.00275 14.9975L16.1228 2.50253C16.2358 2.3951 16.3259 2.26578 16.3874 2.12245C16.449 1.97911 16.4807 1.82476 16.4807 1.66878C16.4807 1.5128 16.449 1.35845 16.3874 1.21511C16.3259 1.07178 16.2358 0.942463 16.1228 0.83503L16.1078 0.82003C15.8753 0.598417 15.5664 0.474789 15.2453 0.474789C14.9241 0.474789 14.6152 0.598417 14.3828 0.82003L0.450251 14.095C0.32772 14.2118 0.230172 14.3522 0.163521 14.5077C0.0968686 14.6633 0.0625002 14.8308 0.0625002 15C0.0625002 15.1693 0.0968686 15.3368 0.163521 15.4923C0.230172 15.6479 0.32772 15.7883 0.450251 15.905Z" />
    </symbol>
    <symbol id="icon-logo" viewBox="0 0 71 52">
      <path
        d="M26.6404 10.5393C28.2842 7.30668 32.9021 7.30668 34.5459 10.5393L36.592 14.5631C37.2352 15.8279 38.4447 16.7085 39.8458 16.9321L44.3171 17.6458C47.8878 18.2157 49.312 22.5898 46.7614 25.1528L43.5425 28.3875C42.5452 29.3896 42.0856 30.8073 42.3051 32.2039L43.0123 36.7036C43.5747 40.2822 39.8415 42.9888 36.6152 41.3416L32.6096 39.2965C31.343 38.6499 29.8433 38.6499 28.5767 39.2965L24.5711 41.3416C21.3448 42.9888 17.6116 40.2822 18.174 36.7036L18.8812 32.2039C19.1007 30.8073 18.6411 29.3896 17.6438 28.3875L14.4249 25.1528C11.8743 22.5898 13.2985 18.2157 16.8692 17.6458L21.3404 16.9321C22.7416 16.7085 23.9511 15.8279 24.5943 14.5631L26.6404 10.5393Z"
        fill="#FFE550" />
      <path
        d="M5.56822 33.0787L5.5337 33.0869C5.53783 33.2075 5.53133 33.6952 5.51419 34.55C5.50856 35.4021 5.50684 35.9616 5.50902 36.2284C5.50848 36.4838 5.50284 36.6917 5.49209 36.8523C5.49286 37.0101 5.4933 37.1923 5.49341 37.3989C5.49081 37.594 5.48006 37.7545 5.46118 37.8805C5.45109 37.9923 5.44099 38.1041 5.4309 38.2159C5.408 38.4279 5.36204 38.5421 5.293 38.5585C5.14343 38.594 4.90984 38.4793 4.59223 38.2143C4.27191 37.9379 4.08733 37.6961 4.03848 37.4889C3.98963 37.2818 3.97831 35.7652 4.00452 32.9394C4.04224 30.1108 3.96812 28.2506 3.78217 27.3589C3.74146 27.1863 3.74916 27.0386 3.80528 26.9159C3.86335 26.6469 4.16206 26.3937 4.70141 26.1564C5.25227 25.9162 6.07422 25.6665 7.16726 25.4071C8.2718 25.145 9.1483 24.9978 9.79674 24.9654C10.4567 24.9303 10.8111 25.0164 10.8599 25.2235C10.8925 25.3617 10.8178 25.4827 10.6357 25.5867C10.4537 25.6906 10.292 25.7776 10.1506 25.8477C10.0064 25.9062 9.8176 25.9814 9.58412 26.0732C9.34793 26.1536 9.129 26.2298 8.92732 26.302C8.72294 26.3627 8.45798 26.4499 8.13246 26.5636C7.81844 26.6745 7.52743 26.7801 7.25944 26.8801C6.98873 26.9687 6.6243 27.0977 6.16613 27.2672C5.70797 27.4367 5.41121 27.5436 5.27586 27.5878C5.2955 27.6196 5.31347 27.6701 5.32975 27.7391C5.4573 28.2801 5.52604 29.5764 5.53595 31.628C6.25745 31.4932 7.0185 31.2944 7.81912 31.0315C8.63125 30.7658 9.12936 30.6111 9.31345 30.5675C9.75066 30.4637 9.99098 30.5039 10.0344 30.6881C10.1185 31.0448 9.68859 31.4629 8.74459 31.9421C7.81209 32.4186 6.7533 32.7975 5.56822 33.0787ZM16.8351 29.8945C16.7429 29.5032 16.5928 29.1499 16.3848 28.8347C16.1741 28.5079 15.9289 28.2926 15.6493 28.1888C14.907 28.5959 14.3676 29.3741 14.0311 30.5235C13.7035 31.6586 13.6441 32.6693 13.8531 33.5555C14.062 34.4418 14.4109 34.9424 14.8997 35.0573C15.6901 34.6996 16.259 33.969 16.6063 32.8657C16.9624 31.7481 17.0387 30.7578 16.8351 29.8945ZM12.3328 31.1271C12.5238 30.1337 12.8736 29.2729 13.3823 28.5445C13.8997 27.8019 14.4978 27.35 15.1766 27.1889C15.867 27.0251 16.5115 27.1821 17.1101 27.6599C17.706 28.1261 18.103 28.7794 18.3011 29.6196C18.4965 30.4482 18.496 31.3477 18.2996 32.318C18.1004 33.2768 17.712 34.1286 17.1343 34.8734C16.5655 35.6039 15.8841 36.0633 15.0902 36.2517C14.5034 36.391 13.9506 36.2366 13.4319 35.7884C12.9132 35.3403 12.5561 34.7019 12.3607 33.8732C12.1626 33.033 12.1533 32.1176 12.3328 31.1271ZM24.6554 28.0387C24.5631 27.6474 24.413 27.2941 24.205 26.9788C23.9943 26.6521 23.7492 26.4368 23.4696 26.333C22.7273 26.7401 22.1879 27.5183 21.8514 28.6677C21.5237 29.8028 21.4644 30.8135 21.6733 31.6997C21.8823 32.5859 22.2312 33.0865 22.7199 33.2015C23.5104 32.8437 24.0792 32.1132 24.4265 31.0099C24.7827 29.8923 24.8589 28.9019 24.6554 28.0387ZM20.1531 29.2712C20.3441 28.2779 20.6939 27.4171 21.2025 26.6887C21.7199 25.9461 22.3181 25.4942 22.9969 25.3331C23.6872 25.1693 24.3317 25.3263 24.9304 25.804C25.5263 26.2703 25.9233 26.9235 26.1214 27.7637C26.3168 28.5924 26.3163 29.4919 26.1198 30.4622C25.9207 31.421 25.5323 32.2728 24.9546 33.0175C24.3857 33.7481 23.7044 34.2075 22.9105 34.3959C22.3237 34.5352 21.7709 34.3807 21.2522 33.9326C20.7334 33.4845 20.3764 32.8461 20.181 32.0174C19.9828 31.1772 19.9735 30.2618 20.1531 29.2712ZM32.8184 17.8978C33.0025 17.8542 33.2676 17.9736 33.6136 18.256C33.9684 18.5243 34.1811 18.808 34.2517 19.1073C34.3223 19.4065 34.3793 20.2924 34.4227 21.7648C34.4634 23.2257 34.4704 24.7494 34.4435 26.3357C34.4075 29.8931 34.2572 31.7032 33.9926 31.766C33.8315 31.8042 33.6301 31.7487 33.3884 31.5995C33.1554 31.436 33.0213 31.2794 32.986 31.1298C32.9508 30.9802 32.9205 30.6714 32.8952 30.2034C32.039 31.6219 31.191 32.4309 30.351 32.6302C29.8448 32.7503 29.3303 32.6293 28.8075 32.2673C28.2963 31.9024 27.9823 31.4726 27.8656 30.9777C27.6973 30.2641 27.6877 29.3731 27.8367 28.3046C27.9945 27.222 28.3409 26.1918 28.8758 25.2141C29.4107 24.2364 30.0866 23.6507 30.9035 23.4568C31.7204 23.2629 32.4052 23.6169 32.9581 24.5188C32.9695 21.9395 32.8371 19.9352 32.5608 18.5059C32.4794 18.1606 32.5653 17.9579 32.8184 17.8978ZM32.9187 26.8252C32.7722 26.2037 32.5394 25.7059 32.2204 25.3319C31.9128 24.9552 31.6095 24.8024 31.3104 24.8734C30.8156 24.9908 30.3813 25.4159 30.0074 26.1488C29.6334 26.8817 29.3848 27.682 29.2614 28.5499C29.1468 29.4036 29.1573 30.1181 29.293 30.6936C29.3419 30.9008 29.456 31.0499 29.6354 31.141C29.8149 31.2321 30.0081 31.2531 30.2152 31.204C30.6639 31.0975 31.192 30.6319 31.7994 29.8071C32.4183 28.9797 32.7972 28.0876 32.9361 27.131L32.9391 26.9115L32.9187 26.8252ZM43.935 25.7787C44.1575 26.7225 43.919 27.6177 43.2196 28.4643C42.5174 29.2994 41.6141 29.848 40.5095 30.1101C39.4165 30.3695 38.4468 30.3018 37.6005 29.9071C36.7514 29.5009 36.2672 29.0446 36.1478 28.5382C36.0664 28.1929 36.1292 27.9957 36.3363 27.9466C36.5204 27.9029 36.948 28.0931 37.619 28.5172C37.8723 28.6637 38.1918 28.7824 38.5777 28.8731C38.9751 28.9611 39.3694 28.9587 39.7606 28.8659C40.566 28.6747 41.2305 28.2983 41.7541 27.7365C42.2892 27.172 42.4997 26.648 42.3858 26.1646C42.3125 25.8538 42.0118 25.5059 41.4836 25.1208C40.9554 24.7357 40.388 24.3903 39.7813 24.0846C39.1834 23.7646 38.619 23.4063 38.0881 23.0097C37.5572 22.6131 37.2579 22.2709 37.19 21.9832C37.1222 21.6954 37.1078 21.3768 37.1469 21.0272C37.1859 20.6776 37.2569 20.4116 37.3597 20.2292C37.6917 19.6278 38.2806 19.008 39.1263 18.3698C39.9836 17.7288 40.7344 17.3319 41.3787 17.179C41.7124 17.0998 42.0201 17.1422 42.3017 17.3063C42.5834 17.4704 42.7527 17.6733 42.8097 17.915C42.8369 18.0301 42.7378 18.1508 42.5124 18.2772C42.2871 18.4036 41.9406 18.5831 41.473 18.8156C41.0142 19.0338 40.6126 19.2628 40.2682 19.5026C39.0645 20.323 38.5182 20.9691 38.6295 21.441C38.6892 21.6942 39.5292 22.2423 41.1494 23.0854C41.773 23.4114 42.3625 23.8245 42.9178 24.3247C43.4819 24.8106 43.821 25.2953 43.935 25.7787ZM47.8975 26.6432C47.9491 26.8619 48.1014 26.9412 48.3546 26.8811C48.7918 26.7773 49.2925 26.5309 49.8569 26.1417C50.43 25.7384 50.751 25.5285 50.8201 25.5121C51.0272 25.4629 51.1565 25.5477 51.2081 25.7664C51.2868 26.1002 51.0325 26.5677 50.4453 27.1688C49.8696 27.7673 49.2999 28.1334 48.7361 28.2672C48.1838 28.3983 47.6883 28.3579 47.2496 28.146C46.8081 27.9226 46.5494 27.6498 46.4734 27.3275C46.3974 27.0052 46.3701 26.5803 46.3915 26.0526C46.4101 25.5134 46.4497 24.8052 46.5101 23.9279C46.5794 23.0364 46.625 22.3025 46.647 21.726C46.1361 21.981 45.7886 22.1303 45.6045 22.174C45.4204 22.2177 45.2146 22.1693 44.9871 22.0288C44.7684 21.8741 44.6387 21.7104 44.5979 21.5378C44.5328 21.2615 45.2183 20.8193 46.6543 20.2112C46.6362 19.2067 46.5402 18.3362 46.3666 17.5996C46.2851 17.2543 46.3595 17.0544 46.5896 16.9997C46.7852 16.9533 47.0567 17.0226 47.404 17.2075C47.7486 17.381 47.9576 17.6231 48.0309 17.9338C48.1041 18.2446 48.1353 18.8145 48.1242 19.6436C48.7665 19.4304 49.2832 19.2774 49.6744 19.1846C50.3647 19.0207 50.7452 19.0884 50.8157 19.3877C50.8564 19.5603 50.7005 19.7493 50.348 19.9545C50.0069 20.1569 49.2666 20.521 48.127 21.0467C48.0998 22.0133 48.0405 23.1272 47.9491 24.3886C47.855 25.6384 47.8378 26.39 47.8975 26.6432ZM55.6175 17.5919C56.1353 17.469 56.6752 17.6204 57.2372 18.0461C57.7966 18.4603 58.1264 18.8803 58.2268 19.3062C58.3245 19.7205 58.2811 20.1805 58.0966 20.6861C58.2754 20.826 58.3797 20.9592 58.4096 21.0858C58.4856 21.4081 58.541 21.9783 58.576 22.7965C58.6225 23.6119 58.6569 24.1445 58.6794 24.3944C58.7134 24.6416 58.7365 24.8427 58.7488 24.9978C58.7583 25.1414 58.7621 25.2863 58.7602 25.4326C58.782 25.7313 58.7124 25.8997 58.5513 25.938C58.3442 25.9871 58.1296 25.8497 57.9074 25.5256C57.694 25.1874 57.5079 24.7332 57.3492 24.1632C56.6319 25.7068 55.836 26.5823 54.9615 26.7899C54.4323 26.9154 53.8558 26.8152 53.2323 26.4892C52.6175 26.149 52.2531 25.7372 52.1391 25.2538C51.9762 24.5632 52.0285 23.6514 52.296 22.5184C52.5607 21.3739 53.0021 20.309 53.6203 19.3238C54.2384 18.3385 54.9042 17.7612 55.6175 17.5919ZM57.1279 20.442C56.8755 19.3716 56.5364 18.8869 56.1107 18.988C55.662 19.0945 55.2145 19.541 54.7681 20.3275C54.3191 21.1025 53.9825 21.942 53.7582 22.8459C53.534 23.7499 53.4775 24.4378 53.5888 24.9097C53.6349 25.1054 53.7535 25.2474 53.9444 25.3358C54.1326 25.4127 54.336 25.4252 54.5546 25.3733C55.0954 25.245 55.6197 24.7377 56.1276 23.8515C56.6327 22.9538 56.8941 21.9498 56.9118 20.8397C56.9056 20.6588 56.979 20.532 57.1319 20.4593L57.1279 20.442Z"
        fill="#2C2C2C" />
      <path fill-rule="evenodd" clip-rule="evenodd"
        d="M53.5889 32.4588C53.0956 32.5812 52.7071 32.9568 52.545 33.4385C49.4552 42.6232 40.8012 49.2285 30.6211 49.2285C24.4466 49.2285 18.8334 46.7985 14.6827 42.8368C14.3146 42.4855 13.795 42.3345 13.301 42.4571C12.2631 42.7147 11.8696 43.9719 12.638 44.7157C17.2973 49.2259 23.6364 52 30.6211 52C42.0933 52 51.8239 44.5164 55.2303 34.148C55.5646 33.1307 54.6282 32.2009 53.5889 32.4588ZM6.77855 22.9912C7.34056 22.8517 7.7572 22.3831 7.86047 21.8133C9.82446 10.9767 19.275 2.77153 30.6211 2.77153C37.9997 2.77153 44.5766 6.24161 48.8142 11.6488C49.1717 12.105 49.7593 12.3246 50.3217 12.185C51.2699 11.9497 51.699 10.8481 51.1014 10.0752C46.3621 3.94517 38.9507 0 30.6211 0C17.8465 0 7.23134 9.27939 5.10294 21.4883C4.93505 22.4513 5.82971 23.2267 6.77855 22.9912Z"
        fill="#BBF330" />
      <path
        d="M69.5754 8.66363C63.453 20.4304 60.7653 12.6692 52.1468 17.2283C53.0088 3.56927 62.1368 11.8802 69.5754 8.66363Z"
        fill="#BBF330" stroke="#BBF330" stroke-width="1.01961" stroke-linejoin="round" />
    </symbol>
    <symbol id="icon-rocket-launch" viewBox="0 0 32 32">
      <path
        d="M7.23333 13.6334L10.7667 15.1334C11.1667 14.3334 11.5944 13.5445 12.05 12.7667C12.5056 11.9889 12.9889 11.2445 13.5 10.5334L10.8667 10L7.23333 13.6334ZM12.3667 16.3334L16.8 20.7667C18.0667 20.1889 19.2556 19.5334 20.3667 18.8C21.4778 18.0667 22.3778 17.3556 23.0667 16.6667C24.8667 14.8667 26.1889 13.0223 27.0333 11.1334C27.8778 9.24448 28.3333 7.11114 28.4 4.73337C26.0222 4.80003 23.8889 5.25559 22 6.10003C20.1111 6.94448 18.2667 8.2667 16.4667 10.0667C15.7778 10.7556 15.0667 11.6556 14.3333 12.7667C13.6 13.8778 12.9444 15.0667 12.3667 16.3334ZM20 13.1334C19.5556 12.6889 19.3333 12.1389 19.3333 11.4834C19.3333 10.8278 19.5556 10.2778 20 9.83337C20.4444 9.38892 20.9944 9.1667 21.65 9.1667C22.3056 9.1667 22.8556 9.38892 23.3 9.83337C23.7444 10.2778 23.9667 10.8278 23.9667 11.4834C23.9667 12.1389 23.7444 12.6889 23.3 13.1334C22.8556 13.5778 22.3056 13.8 21.65 13.8C20.9944 13.8 20.4444 13.5778 20 13.1334ZM19.5 25.9L23.1333 22.2667L22.6 19.6334C21.8889 20.1445 21.1444 20.6278 20.3667 21.0834C19.5889 21.5389 18.8 21.9667 18 22.3667L19.5 25.9ZM30.3667 2.7667C30.5667 5.78892 30.1889 8.54448 29.2333 11.0334C28.2778 13.5223 26.7 15.8667 24.5 18.0667L24.4333 18.1334L24.3667 18.2L25.1 21.8667C25.1667 22.2 25.15 22.5223 25.05 22.8334C24.95 23.1445 24.7778 23.4223 24.5333 23.6667L18.8333 29.4L16 22.8L10.3333 17.1334L3.73333 14.3L9.46667 8.60003C9.71111 8.35559 9.98889 8.18337 10.3 8.08337C10.6111 7.98337 10.9333 7.9667 11.2667 8.03337L14.9333 8.7667C14.9556 8.74448 14.9778 8.72781 15 8.7167C15.0222 8.70559 15.0444 8.68892 15.0667 8.6667C17.2667 6.4667 19.6111 4.88337 22.1 3.9167C24.5889 2.95003 27.3444 2.5667 30.3667 2.7667ZM5.96667 21.1667C6.74444 20.3889 7.69444 19.9945 8.81667 19.9834C9.93889 19.9723 10.8889 20.3556 11.6667 21.1334C12.4444 21.9111 12.8278 22.8611 12.8167 23.9834C12.8056 25.1056 12.4111 26.0556 11.6333 26.8334C11.0556 27.4111 10.1611 27.8889 8.95 28.2667C7.73889 28.6445 5.92222 29 3.5 29.3334C3.83333 26.9111 4.18333 25.0889 4.55 23.8667C4.91667 22.6445 5.38889 21.7445 5.96667 21.1667ZM7.36667 22.6C7.05556 22.9334 6.77778 23.4556 6.53333 24.1667C6.28889 24.8778 6.07778 25.7889 5.9 26.9C7.01111 26.7223 7.92222 26.5111 8.63333 26.2667C9.34444 26.0223 9.86667 25.7445 10.2 25.4334C10.6222 25.0556 10.8389 24.5834 10.85 24.0167C10.8611 23.45 10.6667 22.9556 10.2667 22.5334C9.84444 22.1334 9.35 21.9389 8.78333 21.95C8.21667 21.9611 7.74444 22.1778 7.36667 22.6Z"
        fill="#7EB101" />
    </symbol>
    <symbol id="icon-touch-app" viewBox="0 0 32 32">
      <path
        d="M15.5 1.33331C17.5222 1.33331 19.25 2.03887 20.6833 3.44998C22.1167 4.86109 22.8333 6.57776 22.8333 8.59998C22.8333 9.75554 22.5833 10.8444 22.0833 11.8666C21.5833 12.8889 20.8778 13.7555 19.9667 14.4666H18.8333V12.8C19.4778 12.2889 19.9722 11.6666 20.3167 10.9333C20.6611 10.2 20.8333 9.4222 20.8333 8.59998C20.8333 7.13331 20.3111 5.88887 19.2667 4.86665C18.2222 3.84442 16.9667 3.33331 15.5 3.33331C14.0333 3.33331 12.7778 3.84442 11.7333 4.86665C10.6889 5.88887 10.1667 7.13331 10.1667 8.59998C10.1667 9.4222 10.3389 10.2 10.6833 10.9333C11.0278 11.6666 11.5222 12.2889 12.1667 12.8V15.2C10.9222 14.5555 9.94446 13.6444 9.23335 12.4666C8.52224 11.2889 8.16668 9.99998 8.16668 8.59998C8.16668 6.57776 8.88335 4.86109 10.3167 3.44998C11.75 2.03887 13.4778 1.33331 15.5 1.33331ZM14.2333 29.3333C13.8556 29.3333 13.5 29.2611 13.1667 29.1166C12.8333 28.9722 12.5445 28.7778 12.3 28.5333L5.43335 21.6666L7.30002 19.7333C7.61113 19.4222 7.96113 19.1833 8.35002 19.0166C8.7389 18.85 9.14446 18.8222 9.56668 18.9333L12.1667 19.5333V8.66665C12.1667 7.73331 12.4889 6.94442 13.1333 6.29998C13.7778 5.65554 14.5667 5.33331 15.5 5.33331C16.4333 5.33331 17.2222 5.65554 17.8667 6.29998C18.5111 6.94442 18.8333 7.73331 18.8333 8.66665V14.4H19.7C19.8111 14.4 19.9111 14.4222 20 14.4666C20.0889 14.5111 20.1889 14.5555 20.3 14.6L25.2333 17C25.7667 17.2444 26.1611 17.6389 26.4167 18.1833C26.6722 18.7278 26.7445 19.2889 26.6333 19.8666L25.4333 27.1333C25.3222 27.7778 25.0111 28.3055 24.5 28.7166C23.9889 29.1278 23.4111 29.3333 22.7667 29.3333H14.2333ZM13.9667 27.3333H23.3333L24.7667 19.0333L18.6667 16H16.8333V8.66665C16.8333 8.26665 16.7111 7.94442 16.4667 7.69998C16.2222 7.45554 15.9 7.33331 15.5 7.33331C15.1 7.33331 14.7778 7.45554 14.5333 7.69998C14.2889 7.94442 14.1667 8.26665 14.1667 8.66665V21.9666L9.03335 20.8666L8.26668 21.6333L13.9667 27.3333ZM23.3333 27.3333H13.9667H23.3333Z"
        fill="#7EB101" />
    </symbol>
    <symbol id="icon-stars" viewBox="0 0 100 16">
      <path
        d="M7.81974 0.51869C8.11607 -0.172898 9.12535 -0.172897 9.42168 0.518692L11.1706 4.60057C11.2956 4.89213 11.5781 5.09134 11.9023 5.11657L16.442 5.46986C17.2111 5.52972 17.523 6.46147 16.937 6.94875L13.4783 9.82474C13.2313 10.0302 13.1233 10.3526 13.1988 10.6597L14.2555 14.9599C14.4345 15.6885 13.618 16.2644 12.9595 15.874L9.07289 13.5695C8.79528 13.4049 8.44614 13.4049 8.16853 13.5695L4.2819 15.874C3.62338 16.2644 2.80686 15.6885 2.9859 14.9599L4.04261 10.6597C4.11809 10.3526 4.0102 10.0302 3.76316 9.82474L0.304365 6.94875C-0.281654 6.46147 0.030231 5.52972 0.799391 5.46986L5.33911 5.11657C5.66337 5.09134 5.94584 4.89213 6.07076 4.60057L7.81974 0.51869Z"
        fill="#FFE550" />
      <path
        d="M28.5094 0.51869C28.8058 -0.172898 29.815 -0.172897 30.1114 0.518692L31.8603 4.60057C31.9853 4.89213 32.2678 5.09134 32.592 5.11657L37.1317 5.46986C37.9008 5.52972 38.2127 6.46147 37.6267 6.94875L34.168 9.82474C33.921 10.0302 33.813 10.3526 33.8885 10.6597L34.9452 14.9599C35.1242 15.6885 34.3077 16.2644 33.6492 15.874L29.7626 13.5695C29.485 13.4049 29.1358 13.4049 28.8582 13.5695L24.9716 15.874C24.3131 16.2644 23.4966 15.6885 23.6756 14.9599L24.7323 10.6597C24.8078 10.3526 24.6999 10.0302 24.4529 9.82474L20.9941 6.94875C20.408 6.46147 20.7199 5.52972 21.4891 5.46986L26.0288 5.11657C26.3531 5.09134 26.6355 4.89213 26.7605 4.60057L28.5094 0.51869Z"
        fill="#FFE550" />
      <path
        d="M49.1989 0.51869C49.4952 -0.172898 50.5045 -0.172897 50.8008 0.518692L52.5498 4.60057C52.6748 4.89213 52.9572 5.09134 53.2815 5.11657L57.8211 5.46986C58.5903 5.52972 58.9022 6.46147 58.3162 6.94875L54.8574 9.82474C54.6104 10.0302 54.5025 10.3526 54.5779 10.6597L55.6346 14.9599C55.8137 15.6885 54.9972 16.2644 54.3387 15.874L50.452 13.5695C50.1744 13.4049 49.8253 13.4049 49.5477 13.5695L45.661 15.874C45.0025 16.2644 44.186 15.6885 44.365 14.9599L45.4218 10.6597C45.4972 10.3526 45.3894 10.0302 45.1423 9.82474L41.6835 6.94875C41.0975 6.46147 41.4094 5.52972 42.1785 5.46986L46.7183 5.11657C47.0425 5.09134 47.325 4.89213 47.4499 4.60057L49.1989 0.51869Z"
        fill="#FFE550" />
      <path
        d="M69.8886 0.51869C70.1849 -0.172898 71.1942 -0.172897 71.4905 0.518692L73.2395 4.60057C73.3645 4.89213 73.6469 5.09134 73.9712 5.11657L78.5108 5.46986C79.28 5.52972 79.5919 6.46147 79.0059 6.94875L75.5471 9.82474C75.3001 10.0302 75.1922 10.3526 75.2676 10.6597L76.3243 14.9599C76.5034 15.6885 75.6869 16.2644 75.0284 15.874L71.1417 13.5695C70.8641 13.4049 70.515 13.4049 70.2374 13.5695L66.3507 15.874C65.6922 16.2644 64.8757 15.6885 65.0547 14.9599L66.1115 10.6597C66.1869 10.3526 66.079 10.0302 65.832 9.82474L62.3732 6.94875C61.7872 6.46147 62.0991 5.52972 62.8682 5.46986L67.408 5.11657C67.7322 5.09134 68.0147 4.89213 68.1396 4.60057L69.8886 0.51869Z"
        fill="#FFE550" />
      <path
        d="M90.5783 0.51869C90.8746 -0.172898 91.8839 -0.172897 92.1802 0.518692L93.9292 4.60057C94.0542 4.89213 94.3366 5.09134 94.6609 5.11657L99.2005 5.46986C99.9697 5.52972 100.282 6.46147 99.6956 6.94876L96.2368 9.82474C95.9898 10.0302 95.8818 10.3526 95.9573 10.6597L97.014 14.9599C97.1931 15.6885 96.3766 16.2644 95.7181 15.874L91.8314 13.5695C91.5538 13.4049 91.2047 13.4049 90.9271 13.5695L87.0404 15.874C86.3819 16.2644 85.5654 15.6885 85.7444 14.9599L86.8012 10.6597C86.8766 10.3526 86.7687 10.0302 86.5217 9.82474L83.0629 6.94876C82.4769 6.46147 82.7888 5.52972 83.5579 5.46986L88.0977 5.11657C88.4219 5.09134 88.7044 4.89213 88.8293 4.60057L90.5783 0.51869Z"
        fill="#FFE550" />
    </symbol>
    <symbol id="icon-btn-arrow" viewBox="0 0 100 16" fill="currentColor">
      <path fill-rule="evenodd" clip-rule="evenodd"
        d="M10.1363 7.12261C10.2906 7.27689 10.2906 7.52698 10.1363 7.68126L6.10866 11.7089C5.95438 11.8632 5.70429 11.8632 5.55001 11.7089L5.36376 11.5226C5.20948 11.3684 5.20948 11.1182 5.36376 10.964L8.92581 7.40193L5.36376 3.83988C5.20948 3.6856 5.20948 3.43551 5.36376 3.28123L5.55001 3.09498C5.70429 2.9407 5.95438 2.9407 6.10866 3.09498L10.1363 7.12261Z" />
    </symbol>
    <symbol id="burger" viewBox="0 0 43 32">
      <path fill="#7eb101" style="fill: var(--color1, #7eb101)"
        d="M0.592 3.556c0-0.55 0.219-1.078 0.607-1.467s0.917-0.607 1.467-0.607h37.333c0.55 0 1.078 0.219 1.466 0.607s0.607 0.917 0.607 1.467c0 0.55-0.218 1.078-0.607 1.467s-0.916 0.607-1.466 0.607h-37.333c-0.55 0-1.078-0.219-1.467-0.607s-0.607-0.917-0.607-1.467zM0.592 16.066c0-0.55 0.219-1.078 0.607-1.467s0.917-0.607 1.467-0.607h37.333c0.55 0 1.078 0.219 1.466 0.607s0.607 0.916 0.607 1.467c0 0.55-0.218 1.078-0.607 1.467s-0.916 0.607-1.466 0.607h-37.333c-0.55 0-1.078-0.218-1.467-0.607s-0.607-0.916-0.607-1.467zM2.666 26.503c-0.55 0-1.078 0.219-1.467 0.607s-0.607 0.917-0.607 1.467 0.219 1.078 0.607 1.467c0.389 0.389 0.917 0.607 1.467 0.607h37.333c0.55 0 1.078-0.218 1.467-0.607s0.607-0.917 0.607-1.467c0-0.55-0.218-1.078-0.607-1.467s-0.916-0.607-1.466-0.607h-37.333z">
      </path>
    </symbol>
  </defs>
</svg>