<?xml version="1.0" standalone="no"?>
<!DOCTYPE svg PUBLIC "-//W3C//DTD SVG 20010904//EN"
 "http://www.w3.org/TR/2001/REC-SVG-20010904/DTD/svg10.dtd">
<svg version="1.0" xmlns="http://www.w3.org/2000/svg"
 width="700.000000pt" height="700.000000pt" viewBox="0 0 700.000000 700.000000"
 preserveAspectRatio="xMidYMid meet">
<metadata>
Created by potrace 1.14, written by Peter Selinger 2001-2017
</metadata>
<g transform="translate(0.000000,700.000000) scale(0.100000,-0.100000)"
fill="#000000" stroke="none">
<path d="M1033 6028 c-169 -25 -297 -133 -354 -300 l-22 -63 0 -1245 c0 -685
3 -1283 7 -1330 39 -486 236 -976 552 -1370 87 -110 305 -327 414 -414 400
-317 853 -519 1360 -605 63 -11 149 -23 190 -26 41 -4 86 -9 100 -11 31 -5
394 -5 435 0 17 2 66 7 110 12 44 4 82 8 85 9 3 0 32 5 65 9 78 10 301 60 390
87 150 46 296 103 475 187 146 69 374 214 530 339 81 64 290 266 357 345 355
413 568 921 609 1453 12 154 7 2536 -5 2589 -27 112 -107 223 -205 280 -91 53
-228 73 -326 46 -105 -28 -150 -63 -413 -326 -140 -140 -257 -254 -261 -254
-4 0 -46 23 -93 50 -520 307 -1143 451 -1758 406 -458 -33 -921 -177 -1309
-406 -67 -40 -90 -49 -103 -41 -10 6 -127 120 -261 255 -182 183 -258 252
-300 274 -92 49 -175 64 -269 50z m124 -496 c49 -46 60 -61 50 -71 -9 -10 -8
-11 5 -6 20 8 62 -30 52 -47 -4 -6 -3 -8 4 -4 14 9 105 -81 96 -96 -4 -6 -3
-8 4 -4 13 8 73 -49 70 -66 -2 -7 3 -12 9 -10 20 3 55 -37 48 -56 -5 -14 -4
-14 6 -5 10 10 23 2 61 -38 26 -28 45 -56 41 -61 -3 -7 -1 -8 5 -4 17 10 55
-32 47 -52 -5 -13 -4 -14 6 -5 9 9 19 5 45 -19 45 -43 81 -56 145 -54 52 2
127 27 139 46 3 5 41 32 84 60 66 43 81 49 94 38 14 -10 15 -10 5 2 -10 11 -6
18 20 35 40 28 160 85 169 82 4 -1 14 7 22 18 16 21 17 20 20 -38 1 -21 -2
-40 -6 -43 -5 -3 -4 -12 3 -20 9 -11 8 -14 -2 -14 -11 0 -11 -2 1 -10 13 -9
13 -11 0 -20 -10 -6 -11 -10 -2 -10 6 0 12 -7 12 -16 0 -9 -5 -12 -12 -8 -7 5
-8 3 -2 -7 14 -23 17 -62 3 -53 -9 5 -9 3 -3 -7 13 -20 12 -229 -1 -229 -6 0
-7 -3 0 -8 14 -10 15 -52 1 -52 -6 0 -6 -4 2 -9 17 -11 17 -21 0 -32 -7 -5 -8
-9 -2 -9 12 0 13 -45 1 -56 -4 -4 -7 -12 -7 -18 0 -6 5 -4 10 4 8 12 10 11 10
-7 0 -13 0 -26 -1 -29 0 -4 3 -10 8 -13 16 -12 42 -68 35 -76 -4 -5 -2 -5 5
-2 6 4 24 -3 40 -16 15 -13 42 -28 58 -32 40 -11 135 -13 135 -3 0 4 9 8 20 8
25 0 92 67 116 117 16 34 18 67 19 303 0 146 4 271 9 279 6 9 5 12 -1 8 -13
-8 -11 52 2 73 5 8 4 11 -2 7 -13 -8 -11 52 2 73 5 8 4 11 -2 7 -12 -8 -11 92
2 112 6 10 4 12 -5 6 -9 -6 -11 -4 -5 4 4 7 18 11 31 8 13 -2 21 0 18 5 -4 5
2 8 12 7 11 -2 24 0 30 3 6 4 21 9 35 11 13 3 40 8 59 12 19 3 46 8 60 9 14 2
48 7 75 10 28 4 64 9 81 11 l31 5 1 -442 c0 -244 3 -450 6 -458 3 -8 7 -26 8
-40 4 -32 68 -110 90 -110 5 0 6 -5 2 -12 -4 -7 -3 -8 4 -4 6 4 24 1 39 -7 38
-19 121 -14 170 11 22 12 43 19 47 17 3 -3 4 -2 1 1 -2 4 9 22 25 41 17 18 30
40 30 48 0 8 4 15 9 15 10 0 13 157 11 510 -1 124 -1 232 -1 240 1 8 2 55 2
103 0 78 2 87 17 83 9 -3 41 -7 69 -8 29 -2 53 -5 53 -8 0 -3 21 -6 47 -7 56
-3 194 -32 207 -43 5 -5 15 -6 22 -3 16 6 16 6 18 -59 0 -27 -3 -48 -9 -48 -6
0 -6 -3 1 -8 11 -8 12 -167 1 -178 -3 -4 -3 -12 1 -18 10 -17 8 -90 -3 -98 -7
-5 -7 -8 0 -8 8 0 11 -203 5 -335 -1 -23 10 -90 21 -123 27 -81 148 -153 230
-136 19 4 44 8 56 8 11 1 19 4 16 9 -4 6 12 11 29 8 5 0 7 2 6 7 -1 4 9 20 24
35 33 35 58 86 60 124 1 15 6 34 12 42 8 11 8 13 0 8 -7 -4 -11 8 -10 37 1 27
5 42 11 38 6 -3 4 1 -3 10 -9 11 -10 18 -2 23 6 3 7 12 3 18 -12 18 -11 107 0
100 6 -4 7 -1 1 8 -11 18 -12 48 -2 77 5 16 4 21 -3 16 -11 -6 -5 58 8 79 4 6
1 7 -6 2 -10 -5 -11 2 -7 30 4 21 9 42 13 48 3 5 1 7 -4 4 -8 -5 -11 74 -4
114 1 3 24 -5 51 -19 43 -21 49 -27 38 -41 -10 -13 -10 -14 2 -3 18 15 34 16
24 0 -4 -7 -3 -8 4 -4 16 10 74 -22 66 -36 -4 -7 -3 -8 5 -4 11 7 99 -41 128
-70 8 -8 18 -14 23 -14 5 0 15 -6 22 -13 31 -29 113 -77 137 -79 60 -4 121 -3
121 3 0 4 11 10 25 13 14 4 46 26 72 51 39 38 49 43 62 32 14 -10 14 -10 3 4
-10 14 3 31 94 123 92 92 109 105 123 94 14 -11 14 -11 3 3 -11 15 -5 25 44
73 48 49 58 55 73 44 14 -11 14 -11 3 3 -11 14 1 30 85 113 53 53 97 96 97 96
1 0 1 -153 1 -340 0 -329 0 -339 -20 -350 -20 -10 -20 -10 0 -5 20 5 21 1 20
-130 0 -74 -3 -135 -8 -135 -4 0 -5 -6 0 -12 10 -17 11 -308 0 -308 -4 0 -5
-6 0 -12 4 -7 8 -52 8 -100 1 -78 -1 -88 -20 -97 -20 -11 -20 -11 0 -6 20 5
21 1 20 -130 0 -74 -3 -135 -8 -135 -4 0 -5 -6 0 -12 4 -7 8 -52 8 -100 1 -78
-1 -88 -20 -97 -20 -11 -20 -11 0 -6 20 5 21 1 20 -130 0 -74 -4 -135 -9 -135
-4 0 -4 -6 1 -12 21 -28 1 -302 -25 -333 -16 -18 -16 -19 0 -6 18 14 18 16 3
-51 -18 -80 -21 -99 -24 -131 -1 -11 -6 -16 -13 -11 -10 5 -10 4 -1 -6 7 -8 8
-19 3 -29 -5 -9 -14 -37 -20 -63 -8 -28 -17 -45 -23 -41 -6 3 -7 1 -3 -5 10
-16 -4 -63 -17 -55 -6 3 -7 1 -3 -6 4 -6 -1 -35 -12 -64 -28 -74 -140 -291
-163 -316 -11 -12 -16 -21 -12 -21 4 0 1 -6 -8 -13 -9 -7 -16 -14 -16 -17 -2
-20 -47 -79 -56 -73 -7 3 -9 3 -5 -2 12 -12 -50 -95 -161 -216 -30 -32 -58
-56 -63 -53 -5 3 -7 2 -6 -3 5 -14 -64 -83 -75 -76 -6 3 -7 2 -4 -4 6 -10
-100 -104 -183 -162 -96 -67 -178 -120 -191 -123 -8 -2 -18 -8 -24 -15 -5 -6
-47 -31 -93 -54 -70 -37 -85 -41 -94 -29 -8 12 -9 12 -4 -3 4 -11 0 -20 -12
-23 -9 -4 -41 -17 -69 -31 -29 -13 -57 -22 -62 -19 -5 3 -11 0 -14 -8 -3 -8
-16 -13 -31 -12 -14 2 -23 0 -21 -5 7 -10 -62 -32 -81 -25 -8 3 -12 2 -9 -3 3
-5 -18 -16 -47 -24 -124 -35 -206 -56 -248 -62 -25 -4 -54 -9 -65 -11 -41 -8
-92 -15 -157 -20 l-68 -6 -1 78 c-1 44 0 84 1 89 2 6 2 93 1 193 -1 160 2 187
17 208 9 13 23 24 31 24 8 0 12 3 8 6 -8 8 46 63 56 57 4 -2 7 3 7 12 0 9 5
13 10 10 6 -3 10 -2 10 4 0 15 46 62 53 54 4 -3 7 -1 7 5 0 15 78 92 93 92 6
0 8 3 4 6 -8 8 46 63 56 57 4 -2 7 3 7 11 0 9 4 16 9 16 10 0 54 66 59 90 2 8
3 23 3 33 0 9 6 17 12 17 8 0 8 3 2 8 -10 7 -12 16 -17 79 -1 17 -5 30 -9 27
-4 -2 -10 5 -14 16 -8 26 -51 66 -87 81 -15 6 -26 15 -23 18 2 4 -26 7 -63 6
-50 -1 -81 -9 -122 -28 -30 -15 -52 -27 -48 -27 8 0 -153 -163 -168 -169 -5
-3 -18 -16 -29 -30 -22 -29 -85 -91 -92 -91 -3 0 -2 7 1 16 3 8 2 13 -3 10 -5
-3 -79 64 -164 149 -85 84 -158 151 -161 148 -3 -3 -14 1 -23 9 -22 19 -154
17 -173 -2 -3 -3 -22 -16 -42 -30 -21 -14 -43 -37 -49 -52 -6 -15 -14 -26 -18
-24 -3 2 -7 -10 -8 -26 -1 -17 -7 -36 -13 -43 -8 -9 -8 -15 0 -20 6 -3 8 -11
4 -16 -3 -5 2 -33 12 -62 15 -46 41 -75 220 -255 l203 -203 0 -278 -1 -277
-67 8 c-36 4 -75 10 -86 12 -11 2 -35 5 -53 5 -19 1 -31 5 -27 11 3 5 0 7 -9
4 -12 -5 -70 5 -138 22 -5 1 -15 2 -24 3 -8 0 -13 5 -10 9 3 4 -7 7 -22 7 -28
-2 -196 48 -188 55 2 3 -5 6 -17 6 -12 1 -40 10 -62 19 -22 10 -42 19 -45 20
-51 14 -285 127 -310 150 -8 7 -19 15 -25 17 -5 2 -9 7 -7 11 1 5 -2 6 -7 2
-12 -7 -121 63 -121 77 0 5 -4 7 -9 4 -5 -3 -42 20 -83 51 -91 72 -119 99
-110 109 4 4 2 4 -5 0 -15 -9 -165 133 -156 148 3 6 2 8 -2 3 -11 -10 -56 33
-48 46 3 6 1 7 -5 3 -13 -8 -35 28 -24 39 4 5 2 5 -5 2 -14 -9 -55 41 -46 56
3 5 2 7 -4 4 -9 -6 -37 20 -58 54 -5 9 -29 44 -53 78 -23 33 -39 61 -35 61 4
0 -1 6 -10 12 -16 13 -134 238 -171 328 -10 25 -19 57 -20 72 0 14 -4 24 -8
22 -4 -3 -10 8 -13 23 -4 15 -11 37 -16 49 -6 11 -9 24 -8 30 1 5 0 12 -1 17
-1 4 -3 10 -5 15 -1 4 -5 14 -8 22 -4 8 -8 29 -11 45 -2 17 -5 30 -6 30 -4 0
-10 43 -12 82 -2 24 -6 43 -10 43 -4 0 -7 8 -6 18 0 9 -3 48 -6 85 -5 54 -4
67 6 61 7 -4 5 1 -4 12 -11 13 -14 24 -8 34 5 8 6 19 2 25 -11 16 -9 244 2
238 5 -4 6 -1 1 8 -13 20 -14 120 -2 112 6 -4 7 -1 2 8 -5 7 -10 24 -11 37 -2
21 -1 22 14 10 16 -12 16 -11 2 6 -16 21 -21 64 -8 72 4 3 5 11 1 17 -12 19
-11 137 1 137 7 0 8 3 1 8 -14 10 -15 153 -1 145 6 -3 6 0 -1 7 -8 9 -9 19 -3
31 6 10 6 20 2 23 -11 6 -9 207 2 225 6 10 5 12 -2 7 -14 -9 -15 3 -3 24 6 8
7 19 3 25 -11 17 -10 60 2 67 8 5 7 8 -2 8 -9 0 -10 5 -3 19 6 10 7 21 4 25
-12 12 -11 61 1 68 7 5 7 8 -3 8 -10 0 -9 6 5 28 11 18 13 23 3 15 -13 -10
-15 4 -15 105 0 68 5 120 11 124 6 5 5 8 -3 8 -9 0 -10 5 -3 19 6 10 7 21 4
25 -13 12 -11 106 1 99 6 -3 6 0 -1 7 -8 9 -9 19 -3 31 6 10 6 20 2 23 -7 4
-9 236 -2 261 1 6 1 12 0 15 -8 18 -5 66 4 72 8 5 7 8 -2 8 -9 0 -10 5 -3 19
6 10 7 21 4 25 -12 12 -12 66 0 66 8 0 8 3 2 8 -14 10 -15 43 -1 35 6 -3 6 0
-1 8 -12 12 -17 29 -10 29 1 0 30 -26 64 -58z"/>
<path d="M5876 5513 c-6 -14 -5 -15 5 -6 7 7 10 15 7 18 -3 3 -9 -2 -12 -12z"/>
<path d="M1156 5318 c3 -5 10 -6 15 -3 13 9 11 12 -6 12 -8 0 -12 -4 -9 -9z"/>
<path d="M5826 5322 c-3 -5 1 -9 9 -9 8 0 12 4 9 9 -3 4 -7 8 -9 8 -2 0 -6 -4
-9 -8z"/>
<path d="M5706 5242 c-3 -5 1 -9 9 -9 8 0 12 4 9 9 -3 4 -7 8 -9 8 -2 0 -6 -4
-9 -8z"/>
<path d="M5555 5209 c-4 -6 -5 -12 -2 -15 2 -3 7 2 10 11 7 17 1 20 -8 4z"/>
<path d="M5746 5162 c-3 -5 1 -9 9 -9 8 0 12 4 9 9 -3 4 -7 8 -9 8 -2 0 -6 -4
-9 -8z"/>
<path d="M1193 5125 c0 -8 4 -12 9 -9 5 3 6 10 3 15 -9 13 -12 11 -12 -6z"/>
<path d="M3830 5121 c0 -6 4 -13 10 -16 6 -3 7 1 4 9 -7 18 -14 21 -14 7z"/>
<path d="M1110 5079 c0 -5 5 -7 10 -4 6 3 10 8 10 11 0 2 -4 4 -10 4 -5 0 -10
-5 -10 -11z"/>
<path d="M5876 5033 c-6 -14 -5 -15 5 -6 7 7 10 15 7 18 -3 3 -9 -2 -12 -12z"/>
<path d="M4836 5002 c-3 -5 1 -9 9 -9 8 0 12 4 9 9 -3 4 -7 8 -9 8 -2 0 -6 -4
-9 -8z"/>
<path d="M4713 4965 c0 -8 4 -12 9 -9 5 3 6 10 3 15 -9 13 -12 11 -12 -6z"/>
<path d="M2073 4925 c0 -8 4 -12 9 -9 5 3 6 10 3 15 -9 13 -12 11 -12 -6z"/>
<path d="M2110 4766 c0 -2 7 -7 16 -10 8 -3 12 -2 9 4 -6 10 -25 14 -25 6z"/>
<path d="M5476 4678 c3 -5 10 -6 15 -3 13 9 11 12 -6 12 -8 0 -12 -4 -9 -9z"/>
<path d="M5706 4678 c3 -5 10 -6 15 -3 13 9 11 12 -6 12 -8 0 -12 -4 -9 -9z"/>
<path d="M1636 4598 c3 -5 10 -6 15 -3 13 9 11 12 -6 12 -8 0 -12 -4 -9 -9z"/>
<path d="M5876 4553 c-6 -14 -5 -15 5 -6 7 7 10 15 7 18 -3 3 -9 -2 -12 -12z"/>
<path d="M1870 4520 c0 -5 5 -10 11 -10 5 0 7 5 4 10 -3 6 -8 10 -11 10 -2 0
-4 -4 -4 -10z"/>
<path d="M2830 4481 c0 -6 4 -13 10 -16 6 -3 7 1 4 9 -7 18 -14 21 -14 7z"/>
<path d="M1156 4358 c3 -5 10 -6 15 -3 13 9 11 12 -6 12 -8 0 -12 -4 -9 -9z"/>
<path d="M4235 4361 c-3 -5 -2 -12 3 -15 5 -3 9 1 9 9 0 17 -3 19 -12 6z"/>
<path d="M2553 4325 c0 -8 4 -12 9 -9 5 3 6 10 3 15 -9 13 -12 11 -12 -6z"/>
<path d="M3675 4291 c-3 -5 -2 -12 3 -15 5 -3 9 1 9 9 0 17 -3 19 -12 6z"/>
<path d="M4516 4278 c3 -5 10 -6 15 -3 13 9 11 12 -6 12 -8 0 -12 -4 -9 -9z"/>
<path d="M2473 4235 c0 -8 4 -12 9 -9 5 3 6 10 3 15 -9 13 -12 11 -12 -6z"/>
<path d="M4075 4241 c-3 -5 -2 -12 3 -15 5 -3 9 1 9 9 0 17 -3 19 -12 6z"/>
<path d="M5876 4233 c-6 -14 -5 -15 5 -6 7 7 10 15 7 18 -3 3 -9 -2 -12 -12z"/>
<path d="M3876 4198 c3 -5 10 -6 15 -3 13 9 11 12 -6 12 -8 0 -12 -4 -9 -9z"/>
<path d="M4750 4200 c0 -5 5 -10 11 -10 5 0 7 5 4 10 -3 6 -8 10 -11 10 -2 0
-4 -4 -4 -10z"/>
<path d="M1193 4165 c0 -8 4 -12 9 -9 5 3 6 10 3 15 -9 13 -12 11 -12 -6z"/>
<path d="M3270 4159 c0 -5 5 -7 10 -4 6 3 10 8 10 11 0 2 -4 4 -10 4 -5 0 -10
-5 -10 -11z"/>
<path d="M1110 4119 c0 -5 5 -7 10 -4 6 3 10 8 10 11 0 2 -4 4 -10 4 -5 0 -10
-5 -10 -11z"/>
<path d="M5193 4075 c0 -8 4 -12 9 -9 5 3 6 10 3 15 -9 13 -12 11 -12 -6z"/>
<path d="M4475 4049 c-4 -6 -5 -12 -2 -15 2 -3 7 2 10 11 7 17 1 20 -8 4z"/>
<path d="M2436 4042 c-3 -5 1 -9 9 -9 8 0 12 4 9 9 -3 4 -7 8 -9 8 -2 0 -6 -4
-9 -8z"/>
<path d="M4795 4009 c-4 -6 -5 -12 -2 -15 2 -3 7 2 10 11 7 17 1 20 -8 4z"/>
<path d="M2555 4000 c3 -5 8 -10 11 -10 2 0 4 5 4 10 0 6 -5 10 -11 10 -5 0
-7 -4 -4 -10z"/>
<path d="M1756 3958 c3 -5 10 -6 15 -3 13 9 11 12 -6 12 -8 0 -12 -4 -9 -9z"/>
<path d="M2396 3962 c-3 -5 1 -9 9 -9 8 0 12 4 9 9 -3 4 -7 8 -9 8 -2 0 -6 -4
-9 -8z"/>
<path d="M2715 3961 c-3 -5 -2 -12 3 -15 5 -3 9 1 9 9 0 17 -3 19 -12 6z"/>
<path d="M4633 3955 c0 -8 4 -12 9 -9 5 3 6 10 3 15 -9 13 -12 11 -12 -6z"/>
<path d="M5193 3845 c0 -8 4 -12 9 -9 5 3 6 10 3 15 -9 13 -12 11 -12 -6z"/>
<path d="M1795 3800 c-3 -5 -1 -10 4 -10 6 0 11 5 11 10 0 6 -2 10 -4 10 -3 0
-8 -4 -11 -10z"/>
<path d="M3627 3799 c7 -7 15 -10 18 -7 3 3 -2 9 -12 12 -14 6 -15 5 -6 -5z"/>
<path d="M4150 3806 c0 -2 7 -7 16 -10 8 -3 12 -2 9 4 -6 10 -25 14 -25 6z"/>
<path d="M1355 3761 c-3 -5 -2 -12 3 -15 5 -3 9 1 9 9 0 17 -3 19 -12 6z"/>
<path d="M5876 3753 c-6 -14 -5 -15 5 -6 7 7 10 15 7 18 -3 3 -9 -2 -12 -12z"/>
<path d="M3150 3720 c0 -5 5 -10 11 -10 5 0 7 5 4 10 -3 6 -8 10 -11 10 -2 0
-4 -4 -4 -10z"/>
<path d="M2953 3685 c0 -8 4 -12 9 -9 5 3 6 10 3 15 -9 13 -12 11 -12 -6z"/>
<path d="M1746 3638 c3 -5 10 -6 15 -3 13 9 11 12 -6 12 -8 0 -12 -4 -9 -9z"/>
<path d="M3676 3642 c-3 -5 1 -9 9 -9 8 0 12 4 9 9 -3 4 -7 8 -9 8 -2 0 -6 -4
-9 -8z"/>
<path d="M4750 3639 c0 -5 5 -7 10 -4 6 3 10 8 10 11 0 2 -4 4 -10 4 -5 0 -10
-5 -10 -11z"/>
<path d="M5276 3642 c-3 -5 1 -9 9 -9 8 0 12 4 9 9 -3 4 -7 8 -9 8 -2 0 -6 -4
-9 -8z"/>
<path d="M1386 3562 c-3 -5 1 -9 9 -9 8 0 12 4 9 9 -3 4 -7 8 -9 8 -2 0 -6 -4
-9 -8z"/>
<path d="M2276 3553 c-6 -14 -5 -15 5 -6 7 7 10 15 7 18 -3 3 -9 -2 -12 -12z"/>
<path d="M4676 3553 c-6 -14 -5 -15 5 -6 7 7 10 15 7 18 -3 3 -9 -2 -12 -12z"/>
<path d="M2158 3489 c10 -14 10 -18 -4 -23 -9 -3 -21 -3 -26 1 -7 3 -8 1 -4
-5 4 -7 4 -12 -1 -12 -22 0 -98 -88 -124 -143 -32 -68 -39 -156 -18 -232 12
-43 61 -120 93 -147 37 -31 41 -33 81 -53 45 -21 56 -24 102 -28 18 -1 33 -6
33 -10 0 -5 5 -5 12 -1 7 4 24 9 38 11 43 5 55 8 68 17 7 4 16 6 19 3 2 -3 13
2 24 11 11 9 22 16 24 15 3 -2 19 12 36 30 17 17 37 31 43 29 6 -2 8 -1 4 3
-3 4 7 28 23 53 16 25 29 54 29 64 0 10 3 18 8 18 4 0 7 24 7 53 -1 28 4 58
10 66 8 12 7 13 -4 6 -11 -6 -13 -3 -9 13 4 12 2 22 -4 22 -6 0 -8 11 -6 25 3
13 2 23 -1 20 -4 -2 -16 13 -27 33 -10 20 -25 43 -32 50 -7 8 -10 18 -6 23 3
5 2 9 -3 8 -18 -3 -36 1 -30 8 4 3 -3 12 -16 18 -12 7 -34 19 -49 27 -15 8
-26 17 -23 19 2 3 -4 5 -13 6 -9 1 -49 4 -88 8 -47 5 -83 4 -108 -5 -30 -9
-40 -9 -54 2 -15 11 -16 11 -4 -3z"/>
<path d="M4592 3481 c-50 -19 -142 -83 -142 -99 0 -4 -11 -19 -25 -34 -14 -15
-25 -29 -24 -30 0 -2 -2 -15 -6 -30 -4 -17 -12 -25 -19 -21 -7 4 -7 2 1 -7 7
-8 9 -20 4 -29 -9 -20 -8 -122 2 -138 5 -7 5 -13 1 -13 -3 0 -1 -7 6 -15 6 -8
9 -19 5 -25 -3 -5 -2 -10 4 -10 5 0 12 -8 15 -17 18 -56 164 -163 222 -163 11
0 25 -5 31 -11 8 -8 13 -8 18 1 5 8 10 8 21 -1 8 -6 14 -7 14 -2 0 8 31 14 87
17 11 1 19 4 16 9 -4 6 12 11 30 8 4 0 7 4 7 10 0 6 7 8 16 5 8 -3 13 -2 10 3
-3 4 5 13 17 20 25 14 87 92 87 109 0 7 4 12 9 12 13 0 31 82 31 143 0 51 -23
139 -42 164 -5 7 -6 18 -2 24 4 7 3 9 -3 6 -15 -9 -57 39 -48 54 5 8 4 10 -4
5 -14 -9 -63 28 -53 39 4 5 2 5 -5 1 -7 -4 -27 1 -45 10 -50 26 -172 29 -236
5z"/>
<path d="M1790 3486 c0 -2 7 -7 16 -10 8 -3 12 -2 9 4 -6 10 -25 14 -25 6z"/>
<path d="M3035 3331 c-3 -5 -2 -12 3 -15 5 -3 9 1 9 9 0 17 -3 19 -12 6z"/>
<path d="M1226 3322 c-3 -5 1 -9 9 -9 8 0 12 4 9 9 -3 4 -7 8 -9 8 -2 0 -6 -4
-9 -8z"/>
<path d="M2876 3273 c-6 -14 -5 -15 5 -6 7 7 10 15 7 18 -3 3 -9 -2 -12 -12z"/>
<path d="M1550 3159 c0 -5 5 -7 10 -4 6 3 10 8 10 11 0 2 -4 4 -10 4 -5 0 -10
-5 -10 -11z"/>
<path d="M2666 3078 c3 -5 10 -6 15 -3 13 9 11 12 -6 12 -8 0 -12 -4 -9 -9z"/>
<path d="M3030 3000 c0 -5 5 -10 11 -10 5 0 7 5 4 10 -3 6 -8 10 -11 10 -2 0
-4 -4 -4 -10z"/>
<path d="M3236 3002 c-3 -5 1 -9 9 -9 8 0 12 4 9 9 -3 4 -7 8 -9 8 -2 0 -6 -4
-9 -8z"/>
<path d="M5550 2759 c0 -5 5 -7 10 -4 6 3 10 8 10 11 0 2 -4 4 -10 4 -5 0 -10
-5 -10 -11z"/>
<path d="M4795 2729 c-4 -6 -5 -12 -2 -15 2 -3 7 2 10 11 7 17 1 20 -8 4z"/>
<path d="M1436 2678 c3 -5 10 -6 15 -3 13 9 11 12 -6 12 -8 0 -12 -4 -9 -9z"/>
<path d="M3995 2680 c3 -5 8 -10 11 -10 2 0 4 5 4 10 0 6 -5 10 -11 10 -5 0
-7 -4 -4 -10z"/>
<path d="M4633 2675 c0 -8 4 -12 9 -9 5 3 6 10 3 15 -9 13 -12 11 -12 -6z"/>
<path d="M2795 2640 c-3 -5 -1 -10 4 -10 6 0 11 5 11 10 0 6 -2 10 -4 10 -3 0
-8 -4 -11 -10z"/>
<path d="M3835 2640 c-3 -5 -1 -10 4 -10 6 0 11 5 11 10 0 6 -2 10 -4 10 -3 0
-8 -4 -11 -10z"/>
<path d="M4150 2641 c0 -6 4 -13 10 -16 6 -3 7 1 4 9 -7 18 -14 21 -14 7z"/>
<path d="M5433 2565 c0 -8 4 -12 9 -9 5 3 6 10 3 15 -9 13 -12 11 -12 -6z"/>
<path d="M5354 2526 c1 -8 5 -18 8 -22 4 -3 5 1 4 10 -1 8 -5 18 -8 22 -4 3
-5 -1 -4 -10z"/>
<path d="M2596 2522 c-3 -5 1 -9 9 -9 8 0 12 4 9 9 -3 4 -7 8 -9 8 -2 0 -6 -4
-9 -8z"/>
<path d="M5586 2522 c-3 -5 1 -9 9 -9 8 0 12 4 9 9 -3 4 -7 8 -9 8 -2 0 -6 -4
-9 -8z"/>
<path d="M1353 2475 c0 -8 4 -12 9 -9 5 3 6 10 3 15 -9 13 -12 11 -12 -6z"/>
<path d="M5275 2481 c-3 -5 -2 -12 3 -15 5 -3 9 1 9 9 0 17 -3 19 -12 6z"/>
<path d="M2556 2442 c-3 -5 1 -9 9 -9 8 0 12 4 9 9 -3 4 -7 8 -9 8 -2 0 -6 -4
-9 -8z"/>
<path d="M3793 2395 c0 -8 4 -12 9 -9 5 3 6 10 3 15 -9 13 -12 11 -12 -6z"/>
<path d="M3676 2367 c3 -10 9 -15 12 -12 3 3 0 11 -7 18 -10 9 -11 8 -5 -6z"/>
<path d="M4267 2199 c7 -7 15 -10 18 -7 3 3 -2 9 -12 12 -14 6 -15 5 -6 -5z"/>
<path d="M5110 2201 c0 -6 4 -13 10 -16 6 -3 7 1 4 9 -7 18 -14 21 -14 7z"/>
<path d="M1590 2159 c0 -5 5 -7 10 -4 6 3 10 8 10 11 0 2 -4 4 -10 4 -5 0 -10
-5 -10 -11z"/>
<path d="M5475 2120 c3 -5 8 -10 11 -10 2 0 4 5 4 10 0 6 -5 10 -11 10 -5 0
-7 -4 -4 -10z"/>
<path d="M2835 2091 c-3 -5 -2 -12 3 -15 5 -3 9 1 9 9 0 17 -3 19 -12 6z"/>
<path d="M2066 2038 c3 -5 10 -6 15 -3 13 9 11 12 -6 12 -8 0 -12 -4 -9 -9z"/>
<path d="M4316 2042 c-3 -5 1 -9 9 -9 8 0 12 4 9 9 -3 4 -7 8 -9 8 -2 0 -6 -4
-9 -8z"/>
<path d="M2793 1995 c0 -8 4 -12 9 -9 5 3 6 10 3 15 -9 13 -12 11 -12 -6z"/>
<path d="M2105 1880 c-3 -6 1 -7 9 -4 18 7 21 14 7 14 -6 0 -13 -4 -16 -10z"/>
<path d="M2470 1879 c0 -5 5 -7 10 -4 6 3 10 8 10 11 0 2 -4 4 -10 4 -5 0 -10
-5 -10 -11z"/>
<path d="M5273 1875 c0 -8 4 -12 9 -9 5 3 6 10 3 15 -9 13 -12 11 -12 -6z"/>
<path d="M4790 1840 c0 -5 5 -10 11 -10 5 0 7 5 4 10 -3 6 -8 10 -11 10 -2 0
-4 -4 -4 -10z"/>
<path d="M5187 1799 c7 -7 15 -10 18 -7 3 3 -2 9 -12 12 -14 6 -15 5 -6 -5z"/>
<path d="M2186 1718 c3 -5 10 -6 15 -3 13 9 11 12 -6 12 -8 0 -12 -4 -9 -9z"/>
<path d="M3786 1682 c-3 -5 1 -9 9 -9 8 0 12 4 9 9 -3 4 -7 8 -9 8 -2 0 -6 -4
-9 -8z"/>
<path d="M4990 1606 c0 -2 7 -7 16 -10 8 -3 12 -2 9 4 -6 10 -25 14 -25 6z"/>
<path d="M3236 1562 c-3 -5 1 -9 9 -9 8 0 12 4 9 9 -3 4 -7 8 -9 8 -2 0 -6 -4
-9 -8z"/>
<path d="M4700 1566 c0 -2 8 -10 18 -17 15 -13 16 -12 3 4 -13 16 -21 21 -21
13z"/>
<path d="M3190 1440 c0 -5 5 -10 11 -10 5 0 7 5 4 10 -3 6 -8 10 -11 10 -2 0
-4 -4 -4 -10z"/>
<path d="M3033 1395 c0 -8 4 -12 9 -9 5 3 6 10 3 15 -9 13 -12 11 -12 -6z"/>
<path d="M4155 1400 c3 -5 8 -10 11 -10 2 0 4 5 4 10 0 6 -5 10 -11 10 -5 0
-7 -4 -4 -10z"/>
<path d="M4195 1320 c3 -5 8 -10 11 -10 2 0 4 5 4 10 0 6 -5 10 -11 10 -5 0
-7 -4 -4 -10z"/>
<path d="M2955 1201 c-3 -5 -2 -12 3 -15 5 -3 9 1 9 9 0 17 -3 19 -12 6z"/>
</g>
</svg>
